<?xml version="1.0" standalone="no"?>
<!DOCTYPE svg PUBLIC "-//W3C//DTD SVG 20010904//EN"
 "http://www.w3.org/TR/2001/REC-SVG-20010904/DTD/svg10.dtd">
<svg version="1.0" xmlns="http://www.w3.org/2000/svg"
 width="487.000000pt" height="512.000000pt" viewBox="0 0 487.000000 512.000000"
 preserveAspectRatio="xMidYMid meet">

<g transform="translate(0.000000,512.000000) scale(0.100000,-0.100000)"
fill="#000000" stroke="none">
<path d="M1357 5064 c-11 -11 14 -45 86 -118 38 -39 95 -102 126 -141 31 -38
58 -72 61 -75 15 -15 52 -74 90 -145 23 -44 58 -103 76 -131 19 -28 34 -58 34
-67 0 -9 4 -18 9 -21 16 -10 67 -109 100 -193 62 -162 67 -182 102 -382 10
-62 22 -117 25 -122 3 -5 5 -58 5 -117 0 -95 -13 -176 -36 -234 -7 -17 -55
-37 -89 -35 -30 1 -98 77 -136 150 -19 38 -41 73 -47 79 -7 6 -13 15 -13 20 0
14 -162 199 -210 238 -23 19 -61 52 -83 73 -60 55 -191 155 -221 168 -14 7
-26 15 -26 19 0 4 -13 13 -30 20 -16 7 -30 16 -30 21 0 5 -5 9 -10 9 -6 0 -50
29 -98 63 -48 35 -99 70 -112 77 -14 7 -32 19 -40 27 -8 8 -57 45 -108 83 -51
38 -105 79 -119 92 -52 46 -176 173 -192 198 -8 14 -21 29 -28 33 -7 4 -13 13
-13 19 0 6 -6 19 -14 27 -8 9 -26 41 -41 71 -15 30 -30 62 -34 70 -5 8 -18 51
-31 95 -12 44 -24 86 -26 93 -7 24 -32 12 -58 -28 -81 -122 -126 -224 -131
-296 l-4 -57 35 34 c19 18 30 35 25 37 -7 2 -5 12 3 25 23 35 24 72 4 71 -26
-2 -22 9 13 35 16 12 35 33 41 47 6 13 14 24 17 24 12 0 5 -104 -7 -108 -9 -3
-9 -10 1 -30 8 -15 12 -35 10 -44 -3 -10 0 -18 6 -18 5 0 10 -8 10 -17 -1 -52
13 -135 26 -160 8 -15 15 -43 15 -60 0 -26 4 -33 20 -33 13 0 20 -7 20 -20 0
-12 7 -20 18 -20 11 0 13 -3 5 -8 -8 -5 -8 -12 2 -26 12 -16 16 -17 35 -3 20
14 20 16 4 25 -10 6 -15 16 -11 26 9 22 26 20 20 -3 -3 -12 2 -20 15 -23 16
-4 18 -1 14 16 -4 18 -2 18 17 -6 12 -15 29 -29 39 -32 9 -3 28 -22 41 -41 13
-19 30 -35 37 -35 7 0 29 -13 47 -30 19 -16 39 -30 44 -30 19 0 69 -30 93 -55
13 -14 30 -25 37 -25 8 0 12 -4 9 -8 -7 -11 30 -42 49 -42 8 0 15 -7 15 -15 0
-8 4 -15 9 -15 5 0 17 -7 26 -17 14 -14 18 -14 26 -2 7 11 15 7 39 -18 17 -18
26 -33 20 -33 -7 0 -5 -7 4 -16 9 -8 16 -19 16 -23 0 -14 68 -40 89 -34 12 3
21 1 21 -6 0 -6 6 -11 13 -11 8 0 20 -11 27 -25 7 -14 17 -25 22 -25 5 0 12
-10 17 -22 5 -13 14 -23 22 -24 8 0 24 -2 36 -2 15 -1 25 -10 29 -27 3 -14 14
-25 23 -25 9 0 29 -18 46 -40 16 -23 34 -39 40 -36 6 2 20 -14 32 -35 21 -38
21 -39 2 -39 -17 0 -18 -3 -7 -22 14 -27 12 -54 -8 -85 -19 -30 -1 -69 37 -82
16 -5 29 -15 29 -20 0 -6 9 -11 20 -11 30 0 24 20 -10 33 -16 6 -30 17 -30 24
0 7 -8 13 -17 14 -15 0 -15 1 2 8 11 5 34 6 51 4 25 -4 31 -9 27 -24 -4 -15 0
-19 17 -19 22 0 22 -1 6 -19 -10 -11 -14 -25 -10 -36 6 -14 4 -17 -9 -12 -24
9 -21 -5 8 -39 14 -16 25 -40 25 -52 0 -15 7 -26 20 -29 21 -6 27 -37 10 -48
-5 -3 -10 -1 -10 4 0 6 -4 11 -10 11 -5 0 -10 -7 -10 -16 0 -13 -3 -14 -13 -5
-8 6 -17 8 -20 4 -4 -3 3 -11 16 -18 13 -7 21 -18 19 -29 -2 -13 1 -17 10 -13
8 3 20 -4 27 -16 13 -20 14 -20 29 -1 11 14 13 15 9 2 -4 -10 1 -19 11 -23 19
-7 28 -4 24 8 -1 5 2 6 8 2 20 -12 50 15 50 45 0 31 17 41 26 15 4 -8 15 -15
25 -15 10 0 19 -4 19 -10 0 -5 16 -16 36 -25 19 -8 34 -20 33 -27 -5 -23 12
-58 27 -58 8 0 28 -7 44 -15 26 -14 30 -14 30 -1 0 12 12 14 58 11 31 -3 52
-1 47 3 -15 11 -39 61 -33 68 8 8 -29 44 -44 44 -10 0 -9 3 1 9 11 7 10 13 -4
35 -10 14 -15 26 -13 26 8 0 49 -38 49 -44 -2 -14 14 -6 17 8 2 9 -3 16 -12
16 -22 0 -20 13 4 35 27 24 25 33 -5 27 -14 -2 -25 0 -25 6 0 15 28 23 56 16
18 -5 24 -2 24 9 0 9 5 19 12 23 8 5 9 2 4 -12 -18 -43 -18 -54 -2 -54 10 0
16 9 16 25 0 14 4 25 9 25 4 0 6 11 3 25 -5 29 12 33 28 8 8 -14 9 -1 8 51 -2
46 1 70 9 73 6 2 13 -4 16 -14 4 -17 5 -17 6 0 0 9 -8 25 -19 34 -11 10 -20
23 -20 30 0 7 9 13 20 13 24 0 25 8 4 35 -13 17 -16 18 -24 5 -6 -10 -12 -11
-19 -5 -6 7 -3 18 10 34 14 17 25 22 44 17 18 -5 25 -2 25 8 0 8 -4 18 -10 21
-12 7 -14 26 -2 22 4 -1 9 3 11 8 2 6 15 15 30 21 23 10 24 13 8 19 -14 6 -15
10 -6 21 8 10 8 14 0 14 -6 0 -11 7 -11 15 0 8 -8 15 -19 15 -12 0 -20 9 -23
25 -3 14 -1 25 3 25 12 0 11 11 -1 30 -9 13 -11 13 -19 0 -14 -21 -23 -7 -26
43 -1 24 -8 54 -14 66 -9 16 -9 21 1 21 8 1 7 5 -4 14 -22 16 -23 27 -2 19 12
-4 15 1 12 23 -2 16 -7 33 -13 37 -5 5 3 6 19 2 26 -5 27 -5 12 10 -9 9 -16
25 -16 35 0 10 -6 21 -12 23 -10 4 -10 8 1 15 12 9 12 13 2 26 -12 15 -8 20
12 17 4 0 7 4 7 9 0 6 -4 10 -8 10 -5 0 -20 22 -34 50 -14 27 -28 46 -32 43
-3 -4 -6 -1 -6 5 0 7 -7 12 -16 12 -9 0 -14 6 -12 12 5 13 -33 48 -51 48 -16
0 -14 21 4 40 14 15 13 19 -5 35 -11 10 -20 13 -20 8 0 -6 8 -14 17 -17 12 -5
13 -10 5 -18 -14 -14 -45 9 -38 29 3 7 1 13 -5 13 -17 0 -32 52 -17 62 11 6
11 8 0 8 -7 0 -10 4 -7 10 3 6 -1 7 -9 4 -15 -6 -22 12 -13 32 1 4 -7 10 -18
14 -11 4 -27 21 -35 36 -23 47 -95 138 -156 199 -17 17 -34 40 -38 51 -5 17
-86 84 -102 84 -3 0 -20 11 -37 24 -18 13 -59 34 -92 45 -69 24 -60 23 -68 15z
m822 -1408 c0 -14 -2 -16 -6 -6 -3 8 -10 21 -16 28 -7 9 -6 11 7 6 9 -3 16
-16 15 -28z m-532 -98 c-3 -8 -6 -5 -6 6 -1 11 2 17 5 13 3 -3 4 -12 1 -19z
m-173 -5 c-7 -2 -10 -13 -7 -24 4 -16 1 -18 -18 -15 -13 3 -26 5 -29 5 -3 1 9
12 25 25 17 13 32 22 35 19 3 -3 0 -8 -6 -10z m169 -33 c3 -11 1 -18 -4 -14
-5 3 -9 12 -9 20 0 20 7 17 13 -6z m50 -30 c3 -11 1 -18 -4 -14 -5 3 -9 12 -9
20 0 20 7 17 13 -6z m-84 -4 c8 -10 9 -16 1 -21 -5 -3 -10 -1 -10 5 0 7 -7 10
-15 6 -15 -5 -20 5 -8 17 10 11 19 8 32 -7z m528 -22 c-9 -9 -28 6 -21 18 4 6
10 6 17 -1 6 -6 8 -13 4 -17z m-387 -29 c0 -2 -7 -5 -15 -9 -9 -3 -15 0 -15 9
0 9 6 12 15 9 8 -4 15 -7 15 -9z m-135 -29 c-40 -35 -57 -33 -48 5 4 15 9 17
18 9 10 -8 17 -7 27 4 7 8 20 15 28 16 8 0 -3 -15 -25 -34z m93 -13 c-6 -7
-14 -13 -19 -13 -14 0 -11 38 4 43 17 6 28 -15 15 -30z m-48 -25 c0 -5 -4 -8
-10 -8 -5 0 -10 10 -10 23 0 18 2 19 10 7 5 -8 10 -18 10 -22z m80 -14 c0 -8
-7 -14 -15 -14 -8 0 -15 9 -15 20 0 13 5 18 15 14 8 -4 15 -12 15 -20z m370
12 c0 -8 -4 -18 -10 -21 -5 -3 -10 3 -10 14 0 12 5 21 10 21 6 0 10 -6 10 -14z
m-550 -15 c0 -11 -4 -23 -10 -26 -6 -4 -10 5 -10 19 0 14 5 26 10 26 6 0 10
-9 10 -19z m64 -6 c3 -9 2 -23 -3 -33 -5 -9 -12 -26 -16 -36 -5 -19 -6 -19
-20 0 -8 10 -14 26 -14 34 0 10 2 11 6 3 9 -24 20 -13 15 17 -3 22 0 30 11 30
8 0 18 -7 21 -15z m76 -36 c0 -11 -5 -19 -11 -19 -6 0 -9 -18 -8 -45 2 -32 -2
-50 -14 -62 -15 -16 -17 -16 -17 -1 0 9 -7 18 -15 22 -26 9 -17 27 10 20 l25
-6 -16 38 c-9 22 -21 42 -28 46 -8 6 -7 8 2 8 7 0 15 -7 18 -15 9 -22 26 -7
19 16 -4 10 -3 24 0 29 10 16 35 -8 35 -31z m76 -24 c-9 -23 -26 -9 -26 23 0
24 1 25 16 10 10 -9 14 -24 10 -33z m-36 -24 c0 -11 3 -26 6 -34 4 -11 -1 -13
-20 -10 -28 6 -29 7 -20 41 8 27 34 30 34 3z m60 -29 c0 -15 -2 -15 -10 -2
-13 20 -13 33 0 25 6 -3 10 -14 10 -23z m210 8 c0 -5 -2 -10 -4 -10 -3 0 -8 5
-11 10 -3 6 -1 10 4 10 6 0 11 -4 11 -10z m-410 -54 c0 -3 -4 -8 -10 -11 -5
-3 -10 -1 -10 4 0 6 5 11 10 11 6 0 10 -2 10 -4z m230 -11 c0 -8 -7 -15 -15
-15 -8 0 -15 7 -15 15 0 8 7 15 15 15 8 0 15 -7 15 -15z"/>
<path d="M1483 5048 c32 -26 129 -82 170 -99 15 -6 27 -15 27 -19 0 -5 8 -11
19 -15 10 -3 39 -25 63 -48 24 -23 68 -62 97 -87 30 -25 74 -66 99 -92 25 -26
49 -45 55 -41 6 3 7 2 4 -4 -6 -10 27 -43 44 -43 5 0 7 -4 4 -10 -3 -5 -1 -10
5 -10 6 0 8 -5 5 -10 -4 -6 9 -26 29 -45 20 -18 36 -39 36 -45 0 -6 4 -8 10
-5 5 3 8 0 5 -7 -5 -14 46 -78 63 -78 5 0 17 -15 26 -34 8 -18 22 -39 31 -46
8 -7 28 -36 45 -65 17 -29 37 -58 45 -65 18 -15 65 -106 65 -126 0 -8 3 -14 8
-14 4 0 13 -15 21 -32 8 -18 17 -35 20 -38 15 -13 31 -52 31 -75 0 -14 9 -34
20 -45 14 -14 24 -48 35 -111 8 -50 19 -97 25 -104 10 -12 17 -44 56 -245 8
-41 19 -87 25 -101 13 -33 48 -280 42 -296 -3 -7 -1 -13 3 -13 5 0 9 -31 8
-70 0 -54 3 -70 14 -70 9 0 13 -10 11 -27 -2 -38 12 -113 22 -113 4 0 6 -13 4
-30 -2 -16 1 -32 6 -35 15 -10 11 -95 -5 -95 -8 0 -16 -16 -20 -40 -3 -22 -12
-54 -20 -72 -7 -18 -18 -46 -23 -63 -6 -16 -14 -37 -17 -46 -5 -11 -1 -18 13
-22 15 -3 19 -10 15 -21 -4 -11 -13 -14 -25 -11 -13 5 -19 1 -19 -10 0 -12 6
-15 23 -11 21 6 21 6 1 -5 -13 -6 -20 -19 -19 -32 1 -12 0 -15 -2 -5 -2 9 -10
19 -18 22 -9 3 -12 0 -9 -9 3 -7 -2 -25 -11 -39 -11 -16 -14 -33 -10 -47 6
-18 4 -21 -9 -16 -11 5 -16 1 -16 -13 0 -14 5 -18 16 -13 12 4 15 2 12 -8 -3
-8 -13 -13 -22 -11 -10 2 -16 -2 -14 -10 4 -20 -33 -70 -48 -64 -8 3 -14 -1
-14 -9 0 -8 -9 -15 -20 -15 -11 0 -20 -7 -20 -15 0 -9 9 -15 21 -15 16 0 19
-4 14 -17 -4 -10 -8 -29 -9 -43 0 -14 -7 -29 -13 -33 -7 -4 -13 -15 -13 -22 0
-8 -5 -15 -11 -15 -7 0 -9 -11 -6 -26 3 -20 0 -28 -13 -31 -26 -7 -13 -33 16
-33 22 0 23 -3 14 -20 -6 -11 -18 -20 -28 -21 -22 0 23 -20 56 -24 34 -4 35
-10 8 -29 -23 -15 -26 -15 -35 1 -15 27 -23 9 -10 -20 10 -21 9 -30 -2 -43 -8
-9 -13 -24 -11 -33 1 -10 -10 -21 -28 -29 -17 -8 -27 -18 -23 -25 4 -6 0 -8
-10 -4 -14 5 -17 0 -17 -22 0 -16 -6 -32 -12 -35 -7 -3 -1 -4 15 -1 15 3 27 1
27 -5 0 -5 -9 -10 -20 -10 -19 0 -26 -11 -14 -22 8 -9 84 44 78 54 -3 4 -13 8
-22 9 -14 0 -13 2 3 9 34 14 68 12 62 -4 -4 -10 -1 -13 8 -9 22 8 30 -24 11
-42 -21 -21 -21 -45 0 -45 9 0 14 -6 11 -12 -2 -7 -10 -12 -16 -10 -7 1 -25
-7 -41 -18 -15 -11 -35 -20 -44 -20 -14 0 -16 -7 -10 -37 4 -21 8 -39 9 -41 5
-5 49 19 58 32 5 7 7 2 4 -10 -4 -17 -1 -20 14 -17 25 7 25 -16 -2 -67 -21
-41 -39 -52 -39 -25 0 8 5 15 12 15 6 0 8 3 5 6 -9 10 -68 -17 -61 -27 3 -5
-2 -6 -10 -3 -19 7 -21 -7 -4 -24 9 -9 8 -12 -5 -12 -23 0 -21 29 3 60 11 14
20 32 20 40 0 9 -6 6 -17 -9 l-16 -24 -8 21 c-8 21 -39 31 -39 13 0 -5 -16
-15 -35 -21 -19 -6 -35 -15 -35 -19 0 -4 -15 -5 -34 -3 -18 2 -44 -1 -56 -8
-18 -10 -24 -9 -31 1 -6 10 -13 11 -31 2 -13 -6 -45 -16 -72 -23 -28 -6 -58
-21 -69 -33 -14 -15 -21 -18 -24 -9 -3 6 -14 12 -26 12 -18 0 -19 -2 -7 -10
11 -7 4 -10 -27 -10 -23 0 -45 5 -48 10 -4 6 -26 8 -56 4 -31 -4 -49 -3 -49 4
0 13 -40 23 -56 14 -7 -4 -12 -11 -11 -17 1 -5 -10 -11 -25 -13 -29 -3 -40
-22 -13 -22 19 0 19 -5 -2 -38 -22 -34 -33 -42 -61 -42 -12 0 -33 -6 -45 -14
-12 -8 -33 -17 -47 -21 -25 -8 -25 -8 -6 14 11 11 25 21 32 21 7 0 10 9 7 23
-3 16 -2 18 5 8 7 -9 12 -10 16 -2 4 6 26 11 49 12 23 0 36 3 30 6 -7 2 -13
11 -13 18 0 10 -7 12 -31 5 -31 -9 -49 6 -34 30 3 5 -2 10 -14 10 -11 0 -22
-9 -26 -20 -5 -15 -15 -20 -41 -20 -44 0 -105 -25 -102 -42 2 -8 -10 -14 -30
-16 -29 -3 -33 -1 -28 15 5 14 -2 21 -34 31 -48 15 -70 15 -70 2 0 -5 10 -10
23 -10 12 0 29 -5 37 -11 11 -8 7 -9 -19 -5 -18 3 -39 6 -45 6 -6 0 -12 9 -12
20 0 11 4 20 8 20 4 0 8 7 8 15 0 18 -17 20 -22 3 -7 -20 -38 0 -38 26 0 16
-7 26 -22 30 -16 4 -19 8 -11 14 18 11 4 52 -17 52 -10 0 -25 3 -33 6 -8 3
-27 -6 -42 -20 -22 -21 -24 -26 -11 -26 10 0 24 -7 32 -15 9 -8 21 -15 27 -15
7 0 4 7 -5 14 -26 19 -22 36 8 36 23 0 26 -3 22 -25 -3 -14 -1 -25 3 -25 5 0
9 -8 9 -17 0 -12 -3 -14 -8 -7 -4 6 -27 15 -51 19 -24 4 -52 16 -62 26 -16 16
-28 18 -69 13 -59 -8 -100 1 -100 21 0 13 44 22 82 16 4 0 10 8 13 19 8 25 19
25 54 -1 l29 -21 22 22 c19 19 20 21 3 20 -30 -4 -41 -1 -57 16 -15 14 -17 14
-32 0 -19 -20 -28 -20 -44 -1 -14 17 -50 20 -50 5 0 -6 7 -13 15 -16 8 -4 13
-10 10 -14 -8 -12 -45 0 -45 15 0 8 -12 12 -30 11 -16 0 -30 -4 -30 -9 0 -4
-4 -5 -10 -2 -5 3 -10 11 -10 17 0 6 3 8 7 5 3 -4 12 -2 19 4 8 6 20 9 28 6
10 -4 13 -1 9 9 -3 7 -11 14 -17 14 -17 0 -66 24 -66 32 0 4 12 11 28 14 15 4
34 14 43 23 14 14 10 20 -40 62 -35 29 -60 44 -65 38 -6 -5 -18 -9 -28 -9 -13
0 -18 8 -18 28 0 26 3 28 33 25 l32 -4 -30 27 c-16 14 -30 23 -32 18 -4 -13
-95 -10 -118 4 -18 10 -17 11 13 12 17 0 32 5 32 10 0 6 6 10 14 10 8 0 17 7
20 16 4 9 13 14 21 10 8 -3 15 -1 15 4 0 13 -26 13 -51 -1 -11 -5 -28 -8 -37
-6 -14 4 -13 6 6 12 12 4 22 11 22 16 0 13 -18 20 -25 9 -11 -17 -43 -11 -50
10 -6 17 -8 18 -21 6 -8 -8 -14 -21 -14 -29 0 -16 27 -30 40 -22 5 3 11 1 15
-4 6 -10 -22 -28 -40 -26 -15 1 -85 36 -85 42 0 3 11 3 24 1 17 -4 23 -1 19 9
-3 7 0 13 7 13 7 0 10 7 6 16 -4 9 -1 23 5 30 12 14 3 38 -11 29 -11 -7 -24
13 -28 44 -3 21 -23 51 -36 51 -2 0 -11 -7 -19 -15 -13 -13 -16 -13 -21 0 -4
10 1 15 14 15 11 0 20 6 20 14 0 23 -18 28 -29 9 -6 -10 -11 -13 -11 -8 -1 6
-3 34 -5 64 -2 30 -9 57 -16 61 -6 4 -8 13 -5 19 4 6 3 11 -2 11 -15 0 -32
100 -36 214 -3 72 -8 111 -16 116 -10 6 -13 50 -12 164 0 107 -3 156 -10 156
-6 0 -9 -3 -5 -6 3 -4 0 -18 -7 -33 -29 -59 -49 -252 -43 -428 7 -206 23 -366
41 -407 8 -17 17 -53 21 -79 7 -51 33 -126 84 -244 17 -40 31 -77 31 -83 0
-26 97 -227 122 -255 10 -10 37 -49 61 -85 23 -36 46 -70 52 -77 5 -6 28 -37
50 -69 39 -56 318 -344 334 -344 4 0 21 -11 37 -26 35 -30 112 -84 122 -84 4
0 34 -18 67 -40 33 -22 63 -40 67 -40 4 0 24 -12 45 -26 21 -14 69 -41 108
-60 38 -19 86 -44 105 -56 19 -12 77 -38 128 -59 50 -21 102 -44 115 -50 69
-38 224 -52 572 -51 470 0 899 33 950 72 6 4 26 11 45 15 19 4 44 13 55 19 11
7 38 19 60 26 65 21 175 72 175 81 0 5 5 9 11 9 5 0 34 11 62 24 29 13 90 41
137 62 82 37 184 96 205 118 6 6 21 17 35 24 46 23 65 37 95 65 17 15 33 27
37 27 13 0 81 64 110 105 16 22 49 61 74 86 24 26 44 51 44 56 0 5 16 25 36
44 19 18 45 50 56 69 12 19 26 40 32 45 6 6 24 37 40 70 16 33 32 62 35 65 20
16 75 117 92 169 6 20 15 41 19 46 4 6 13 28 20 50 6 22 18 63 26 90 30 99 44
181 44 252 0 39 5 75 10 78 14 9 13 320 -1 347 -7 13 -11 77 -12 160 0 115 -3
141 -15 145 -23 9 -44 -10 -59 -53 -13 -39 -71 -160 -86 -179 -4 -5 -21 -32
-39 -58 -56 -88 -201 -209 -312 -260 -81 -38 -171 -32 -230 14 -37 29 -43 90
-16 164 57 163 110 339 124 417 17 92 20 283 6 358 -19 104 -31 154 -39 164
-4 6 -21 43 -36 81 -38 96 -129 300 -158 355 -45 85 -106 231 -116 278 -6 26
-13 59 -16 73 -5 17 2 49 20 93 37 92 21 123 -36 72 -20 -17 -28 -36 -33 -76
-9 -75 -9 -207 0 -222 8 -12 16 -53 33 -155 5 -28 13 -58 17 -64 15 -24 64
-174 64 -195 0 -12 6 -34 14 -49 9 -18 11 -36 6 -55 -5 -16 -6 -30 -4 -33 2
-2 6 -38 8 -80 2 -43 9 -84 15 -91 8 -10 9 -16 1 -21 -5 -3 -10 -15 -10 -26 0
-10 -6 -19 -14 -19 -21 0 -29 -34 -17 -75 9 -33 8 -35 -15 -35 -17 0 -24 -6
-24 -20 0 -11 -4 -20 -10 -20 -5 0 -10 -6 -10 -12 0 -7 -12 -24 -25 -37 -14
-13 -25 -32 -25 -42 0 -11 -6 -22 -13 -25 -8 -3 -31 -27 -51 -54 -21 -28 -49
-53 -62 -56 -13 -3 -39 -25 -56 -47 -18 -22 -43 -51 -55 -63 -16 -16 -23 -35
-23 -62 0 -26 -7 -45 -20 -57 -11 -10 -20 -24 -20 -32 0 -7 -4 -13 -10 -13 -5
0 -10 -7 -10 -15 0 -19 -10 -19 -24 0 -10 13 -13 11 -23 -15 -6 -16 -7 -28 -2
-24 5 3 -2 -11 -16 -32 -14 -20 -25 -43 -25 -50 0 -20 -17 -17 -29 3 -16 30
-22 8 -8 -27 11 -25 15 -28 20 -15 4 9 11 14 16 11 5 -4 12 0 14 6 3 7 6 8 6
2 1 -5 -8 -20 -18 -31 -11 -12 -17 -24 -14 -27 4 -3 1 -6 -5 -6 -7 0 -12 -10
-12 -23 0 -26 -41 -54 -72 -49 -11 2 -18 -3 -18 -13 0 -9 -5 -13 -10 -10 -6 4
-8 11 -5 16 4 5 -5 4 -19 -3 -17 -7 -26 -19 -26 -34 0 -13 -9 -28 -20 -34 -21
-11 -27 -44 -11 -55 6 -3 15 4 21 15 6 11 17 20 24 20 7 0 23 11 36 25 18 19
26 22 37 13 7 -6 14 -9 16 -7 1 2 7 13 13 23 16 30 34 31 34 2 0 -14 -4 -26
-8 -26 -18 0 -52 -38 -52 -58 0 -22 -24 -52 -42 -52 -5 0 -7 -7 -4 -16 8 -21
-12 -57 -29 -50 -20 7 -45 -21 -44 -47 1 -13 3 -16 5 -7 3 8 15 20 29 26 30
14 49 0 34 -28 -6 -12 -6 -24 1 -37 7 -15 6 -23 -5 -35 -8 -8 -15 -24 -15 -35
0 -14 -6 -21 -20 -21 -16 0 -20 -7 -20 -35 0 -19 -4 -35 -9 -35 -15 0 -65 -49
-58 -56 3 -4 17 -7 31 -7 24 1 24 -1 10 -22 -8 -13 -23 -26 -32 -30 -13 -5
-14 -8 -3 -14 16 -10 3 -62 -17 -69 -18 -6 -27 28 -13 50 10 16 9 23 -5 39
-16 17 -16 20 0 45 10 14 15 28 12 31 -3 3 3 18 14 33 11 16 20 33 20 40 0 14
25 40 38 40 6 0 12 6 15 13 3 6 12 29 21 49 16 37 16 38 -4 38 -16 0 -20 -7
-20 -31 0 -23 -10 -40 -40 -68 -22 -20 -40 -44 -40 -53 0 -9 -7 -18 -15 -22
-8 -3 -15 -13 -15 -22 0 -10 -8 -26 -17 -36 -14 -16 -15 -22 -4 -39 15 -25 0
-49 -30 -49 -23 0 -26 32 -4 50 25 20 17 30 -15 19 -33 -12 -36 -19 -18 -37 9
-9 9 -17 -1 -36 -8 -13 -11 -29 -7 -34 7 -11 -5 -22 -56 -51 -36 -20 -38 -20
-38 -2 0 10 11 26 24 34 13 9 26 30 30 48 13 66 39 110 68 116 16 3 28 12 28
19 0 8 4 14 9 14 5 0 12 16 15 36 5 26 11 34 22 30 14 -5 32 19 22 29 -11 11
-58 -22 -70 -49 -7 -16 -22 -34 -33 -40 -11 -6 -24 -17 -28 -24 -4 -6 -15 -12
-22 -12 -8 0 -15 -4 -15 -9 0 -5 -11 -23 -25 -39 -13 -16 -21 -33 -17 -37 4
-5 -1 -5 -10 -2 -10 3 -27 -2 -40 -13 -19 -16 -20 -19 -6 -20 9 0 19 -8 21
-18 4 -16 5 -16 6 1 0 9 8 17 17 17 11 0 14 -6 9 -22 -8 -26 -32 -48 -52 -48
-7 0 -13 -4 -13 -10 0 -5 -7 -10 -15 -10 -8 0 -15 7 -15 15 0 8 -4 15 -10 15
-5 0 -7 8 -3 18 5 13 1 12 -19 -5 -13 -13 -29 -23 -35 -23 -6 0 -13 -6 -16
-12 -2 -7 -8 -10 -12 -6 -4 4 -2 15 5 24 12 13 11 17 -1 25 -11 7 -9 9 9 9 12
0 22 3 22 8 0 4 11 7 25 7 14 0 25 -3 25 -7 0 -13 28 -9 32 4 7 19 -6 61 -19
65 -7 3 -9 -4 -6 -19 l6 -23 -22 22 c-11 12 -21 27 -21 33 0 5 -5 10 -11 10
-6 0 -9 -6 -6 -12 7 -19 -12 -50 -26 -42 -7 4 -9 4 -5 0 7 -9 -87 -106 -102
-106 -14 0 -12 -28 3 -33 6 -2 -5 -5 -25 -5 -40 0 -52 16 -18 25 11 3 20 11
20 18 0 7 7 15 15 19 8 3 15 13 15 22 0 13 -6 11 -25 -10 -14 -15 -25 -22 -25
-17 0 16 33 51 47 51 7 0 13 4 13 10 0 5 11 12 25 16 14 3 25 13 25 21 0 7 10
24 23 36 12 12 22 27 22 32 1 6 7 24 14 40 44 97 49 115 32 115 -4 0 -19 -14
-32 -32 -13 -17 -30 -37 -36 -44 -7 -7 -13 -18 -13 -24 0 -7 -5 -6 -14 2 -15
14 -5 46 21 61 11 7 12 12 2 23 -9 11 -8 19 6 34 22 25 31 19 15 -9 -6 -12 -7
-21 -2 -21 13 0 35 47 27 59 -3 6 -10 9 -15 6 -6 -3 -9 12 -7 35 2 36 5 42 29
47 26 5 48 35 30 41 -5 1 -6 21 -2 44 5 23 6 49 3 57 -4 13 -3 13 5 2 12 -17
35 -4 28 15 -3 8 3 23 14 34 11 11 23 34 29 52 7 25 9 28 10 11 1 -13 6 -23
12 -23 6 0 8 8 4 19 -8 27 5 72 19 64 6 -4 6 0 -2 9 -13 16 -7 72 7 63 4 -2
15 5 24 16 9 10 16 19 14 19 -1 0 -23 -7 -49 -15 -50 -15 -60 -8 -38 25 8 13
10 12 10 -2 0 -10 5 -18 10 -18 6 0 10 4 10 8 0 4 17 26 38 47 20 22 45 52 54
66 13 21 22 25 47 21 27 -4 31 -1 31 18 0 16 4 21 16 16 14 -6 15 -4 4 9 -11
14 -10 17 8 22 13 3 22 13 22 24 0 25 17 24 30 -1 6 -11 15 -18 19 -16 5 3 16
-3 26 -14 14 -16 16 -23 7 -32 -19 -19 -14 -56 8 -68 15 -8 19 -17 15 -30 -4
-11 -3 -41 1 -67 6 -43 8 -45 16 -23 5 14 7 35 5 48 -2 12 0 25 4 28 13 8 11
18 -10 41 -26 28 -32 78 -9 77 14 -1 15 2 6 22 -13 29 -4 42 16 25 12 -10 15
-7 14 20 -1 18 4 35 10 37 7 2 12 12 12 23 0 10 5 19 10 19 6 0 10 14 10 30 0
17 5 30 13 31 6 1 1 5 -13 9 l-25 8 28 1 c24 1 27 -2 21 -24 -4 -16 0 -35 10
-50 20 -30 39 -24 27 8 -11 31 -4 50 14 34 7 -7 11 -14 10 -17 -2 -3 0 -12 5
-19 5 -10 10 -4 15 18 3 17 6 33 5 36 -1 9 23 30 43 38 15 6 18 17 17 59 -2
56 7 98 20 98 4 0 8 11 9 25 1 14 2 31 3 39 1 8 15 17 32 21 17 4 25 9 19 12
-8 3 -13 22 -13 44 0 31 3 37 16 32 14 -5 15 -3 6 14 -6 10 -7 25 -3 32 10 15
3 51 -10 51 -4 0 -11 -4 -14 -10 -10 -16 -83 -12 -111 7 -29 19 -78 86 -89
123 -4 14 -13 39 -20 55 -12 27 -22 62 -69 230 -54 192 -126 383 -148 393 -5
2 -8 9 -8 14 0 6 -21 47 -47 90 -27 43 -57 94 -68 112 -36 60 -134 202 -157
227 -13 14 -41 47 -63 75 -114 141 -229 253 -365 356 -41 32 -90 70 -108 85
-72 58 -259 168 -379 223 -48 23 -97 45 -108 51 -11 5 -40 15 -65 23 -25 8
-70 24 -100 35 -30 12 -73 26 -96 31 -22 5 -49 12 -60 15 -13 4 -11 0 9 -17z
m725 -575 c-9 -2 -19 -12 -21 -21 -3 -12 -5 -10 -6 6 -1 17 4 22 22 21 15 -1
17 -3 5 -6z m196 -18 c-4 -8 -8 -15 -10 -15 -2 0 -4 7 -4 15 0 8 4 15 10 15 5
0 7 -7 4 -15z m46 -86 c0 -5 -4 -9 -10 -9 -5 0 -10 7 -10 16 0 8 5 12 10 9 6
-3 10 -10 10 -16z m40 -109 c0 -5 -5 -10 -11 -10 -5 0 -7 5 -4 10 3 6 8 10 11
10 2 0 4 -4 4 -10z m116 -27 c-11 -11 -19 6 -11 24 8 17 8 17 12 0 3 -10 2
-21 -1 -24z m-19 -65 c-3 -8 -6 -5 -6 6 -1 11 2 17 5 13 3 -3 4 -12 1 -19z
m113 -18 c0 -5 -4 -10 -10 -10 -5 0 -10 5 -10 10 0 6 5 10 10 10 6 0 10 -4 10
-10z m21 -55 c0 -5 -9 -11 -21 -13 -20 -3 -27 8 -13 22 10 9 34 3 34 -9z m-21
-54 c0 -6 -4 -13 -10 -16 -5 -3 -10 1 -10 9 0 9 5 16 10 16 6 0 10 -4 10 -9z
m60 -5 c0 -3 -4 -8 -10 -11 -5 -3 -10 -1 -10 4 0 6 5 11 10 11 6 0 10 -2 10
-4z m-15 -35 c3 -5 1 -12 -5 -16 -5 -3 -10 1 -10 9 0 18 6 21 15 7z m69 -7 c4
-10 1 -14 -6 -12 -15 5 -23 28 -10 28 5 0 13 -7 16 -16z m-239 -14 c3 -5 1
-10 -4 -10 -6 0 -11 5 -11 10 0 6 2 10 4 10 3 0 8 -4 11 -10z m125 -4 c0 -3
-4 -8 -10 -11 -5 -3 -10 -1 -10 4 0 6 5 11 10 11 6 0 10 -2 10 -4z m120 -60
c0 -24 -17 -28 -23 -6 -3 13 0 20 9 20 8 0 14 -6 14 -14z m30 -55 c0 -5 -6
-13 -13 -19 -10 -8 -13 -6 -14 9 -1 10 5 19 13 19 8 0 14 -4 14 -9z m95 -11
c3 -5 1 -10 -4 -10 -6 0 -11 5 -11 10 0 6 2 10 4 10 3 0 8 -4 11 -10z m13
-147 c-5 -23 -23 -20 -26 4 -3 18 0 21 13 17 9 -4 15 -13 13 -21z m-308 -29
c0 -10 -5 -9 -20 3 -11 10 -20 24 -20 32 0 11 4 10 20 -4 11 -10 20 -24 20
-31z m314 -55 c-8 -13 -24 -1 -24 18 0 13 3 13 15 3 8 -7 12 -16 9 -21z m-304
-33 c0 -11 -19 -15 -25 -6 -3 5 1 10 9 10 9 0 16 -2 16 -4z m316 -43 c-11 -11
-19 6 -11 24 8 17 8 17 12 0 3 -10 2 -21 -1 -24z m1141 -575 c-3 -7 -5 -2 -5
12 0 14 2 19 5 13 2 -7 2 -19 0 -25z m-87 -18 c0 -5 -5 -10 -11 -10 -5 0 -7 5
-4 10 3 6 8 10 11 10 2 0 4 -4 4 -10z m54 -15 c-4 -8 -11 -12 -16 -9 -6 4 -5
10 3 15 19 12 19 11 13 -6z m46 -35 c0 -5 -5 -10 -11 -10 -5 0 -7 5 -4 10 3 6
8 10 11 10 2 0 4 -4 4 -10z m-1325 -139 c-3 -5 -1 -12 5 -16 15 -9 12 -25 -4
-25 -18 0 -25 20 -19 54 5 24 7 26 15 12 5 -9 7 -20 3 -25z m1315 29 c0 -5 -5
-10 -11 -10 -5 0 -7 5 -4 10 3 6 8 10 11 10 2 0 4 -4 4 -10z m-992 -144 c0
-15 -5 -23 -13 -20 -7 3 -10 15 -7 29 5 31 20 24 20 -9z m-31 -46 c-1 -20 -22
-34 -38 -24 -16 9 -10 24 11 24 14 0 18 5 13 17 -4 10 -2 14 5 9 6 -3 10 -15
9 -26z m159 -48 c-12 -11 -17 7 -9 34 l8 29 3 -28 c2 -16 1 -31 -2 -35z m-306
44 c0 -3 -4 -8 -10 -11 -5 -3 -10 -1 -10 4 0 6 5 11 10 11 6 0 10 -2 10 -4z
m270 -25 c0 -5 -6 -14 -14 -20 -10 -9 -15 -8 -19 3 -3 8 -3 17 0 20 9 9 33 7
33 -3z m-50 -16 c0 -2 -5 -16 -12 -30 -12 -27 -38 -34 -38 -10 0 8 5 15 10 15
6 0 10 7 10 15 0 8 7 15 15 15 8 0 15 -2 15 -5z m184 -14 c3 -5 -10 -11 -29
-13 -36 -4 -49 7 -17 15 29 8 41 7 46 -2z m-424 -30 c0 -6 -4 -13 -10 -16 -5
-3 -10 1 -10 9 0 9 5 16 10 16 6 0 10 -4 10 -9z m410 -1 c0 -5 -5 -10 -11 -10
-5 0 -7 5 -4 10 3 6 8 10 11 10 2 0 4 -4 4 -10z m-192 -55 c-3 -14 -1 -28 3
-31 5 -3 9 -11 9 -17 0 -7 -4 -6 -10 3 -8 12 -10 12 -16 -3 -3 -9 -14 -17 -24
-17 -10 0 -20 -10 -24 -24 -4 -18 -11 -23 -25 -19 -12 3 -17 11 -14 19 3 8 -2
23 -12 34 -16 18 -16 19 14 15 19 -3 31 0 32 8 0 7 4 3 9 -8 9 -19 9 -19 16 3
3 12 10 22 15 22 5 0 9 9 9 20 0 11 5 20 11 20 7 0 9 -10 7 -25z m-148 -35 c0
-16 -4 -30 -9 -30 -5 0 -12 -12 -15 -26 -6 -21 -10 -24 -19 -15 -9 9 -9 14 1
20 7 4 14 24 15 44 2 45 27 51 27 7z m1820 -27 c0 -14 -6 -49 -14 -77 -8 -28
-29 -107 -46 -176 -18 -69 -40 -146 -51 -172 -10 -26 -19 -52 -19 -58 0 -6 -7
-18 -15 -27 -8 -8 -12 -20 -8 -26 3 -7 3 -9 -2 -5 -9 9 -40 -28 -50 -62 -4
-14 -16 -36 -26 -49 -11 -13 -19 -30 -19 -39 0 -8 -15 -29 -32 -46 -18 -18
-40 -42 -48 -54 l-15 -22 -7 21 c-5 13 -4 27 4 36 9 11 9 16 -2 23 -22 14 -39
-18 -29 -53 5 -18 4 -37 -1 -46 -7 -11 -9 -12 -10 -2 0 7 -6 11 -14 8 -8 -3
-17 1 -20 9 -3 8 -12 14 -20 14 -10 0 -13 6 -10 15 4 9 15 13 30 11 13 -3 24
-4 24 -3 0 1 -7 20 -15 42 -17 49 -19 68 -4 59 8 -5 10 1 7 18 -3 17 1 29 14
37 10 6 18 18 18 25 0 8 7 22 17 31 13 13 14 18 3 25 -9 6 -4 17 20 44 18 20
35 34 38 31 3 -2 14 13 24 35 11 22 25 40 30 40 6 0 5 -6 -2 -15 -7 -8 -8 -15
-3 -15 20 0 51 36 57 68 4 17 12 32 17 32 6 0 8 4 5 9 -3 5 8 22 24 40 17 17
30 39 30 48 0 10 12 27 26 39 18 16 30 42 40 86 21 89 34 128 45 128 5 0 9
-12 9 -27z m-1575 -23 c3 -6 -4 -10 -17 -10 -18 0 -20 2 -8 10 19 12 18 12 25
0z m-18 -45 c-8 -19 -47 -20 -47 0 0 8 6 12 14 9 8 -3 17 0 21 6 10 16 19 4
12 -15z m-407 -1 c0 -9 -5 -14 -12 -12 -18 6 -21 28 -4 28 9 0 16 -7 16 -16z
m105 -9 c0 -14 -3 -25 -7 -25 -5 0 -8 11 -8 25 0 14 3 25 8 25 4 0 7 -11 7
-25z m119 -1 c3 -8 2 -12 -4 -9 -6 3 -10 10 -10 16 0 14 7 11 14 -7z m45 -13
c-15 -5 -22 6 -14 19 6 9 10 9 16 -1 5 -8 4 -15 -2 -18z m-115 -26 c3 -8 1
-15 -4 -15 -6 0 -10 7 -10 15 0 8 2 15 4 15 2 0 6 -7 10 -15z m-237 -85 c10 0
13 -5 8 -17 -4 -10 -10 -27 -13 -37 -5 -18 -6 -18 -11 -3 -6 16 -8 16 -26 2
-16 -12 -17 -16 -6 -24 8 -5 9 -11 3 -15 -5 -3 -16 1 -23 10 -11 14 -10 18 6
30 39 27 46 36 41 57 -3 12 -3 16 0 10 3 -7 13 -13 21 -13z m-57 -30 c0 -5 -4
-10 -10 -10 -5 0 -10 5 -10 10 0 6 5 10 10 10 6 0 10 -4 10 -10z m180 -126 c0
-8 -5 -12 -10 -9 -6 4 -8 11 -5 16 9 14 15 11 15 -7z m-244 -34 c-4 -36 -16
-53 -16 -22 0 21 9 52 16 52 2 0 2 -14 0 -30z m144 15 c0 -8 -7 -15 -16 -15
-14 0 -14 3 -4 15 7 8 14 15 16 15 2 0 4 -7 4 -15z m-84 -52 c-10 -10 -19 5
-10 18 6 11 8 11 12 0 2 -7 1 -15 -2 -18z m161 5 c-3 -8 -6 -5 -6 6 -1 11 2
17 5 13 3 -3 4 -12 1 -19z m-175 -53 c-21 -28 -25 -26 -17 8 5 16 12 24 21 20
11 -4 10 -9 -4 -28z m-62 -15 c0 -28 -4 -40 -14 -40 -8 0 -17 6 -19 13 -4 9
-8 8 -16 -3 -9 -12 -11 -11 -11 8 0 22 32 62 50 62 6 0 10 -18 10 -40z m810
21 c0 -6 -4 -13 -10 -16 -5 -3 -10 1 -10 9 0 9 5 16 10 16 6 0 10 -4 10 -9z
m-575 -20 c-3 -6 -11 -11 -17 -11 -6 0 -6 6 2 15 14 17 26 13 15 -4z m915 -31
c0 -5 -4 -10 -10 -10 -5 0 -10 5 -10 10 0 6 5 10 10 10 6 0 10 -4 10 -10z
m-280 -34 c0 -2 -7 -7 -16 -10 -8 -3 -12 -2 -9 4 6 10 25 14 25 6z m-940 -20
c0 -3 -4 -8 -10 -11 -5 -3 -10 -1 -10 4 0 6 5 11 10 11 6 0 10 -2 10 -4z m833
-10 c6 -16 -18 -54 -28 -45 -8 9 5 59 15 59 4 0 10 -6 13 -14z m517 4 c0 -5
-2 -10 -4 -10 -3 0 -8 5 -11 10 -3 6 -1 10 4 10 6 0 11 -4 11 -10z m-1270 -40
c0 -5 -4 -10 -10 -10 -5 0 -10 5 -10 10 0 6 5 10 10 10 6 0 10 -4 10 -10z
m1474 -5 c3 -8 1 -15 -4 -15 -6 0 -10 7 -10 15 0 8 2 15 4 15 2 0 6 -7 10 -15z
m-238 -22 c-10 -10 -19 5 -10 18 6 11 8 11 12 0 2 -7 1 -15 -2 -18z m-3486 8
c0 -5 -9 -7 -20 -4 -11 3 -20 7 -20 9 0 2 9 4 20 4 11 0 20 -4 20 -9z m2210
-1 c0 -5 -4 -10 -10 -10 -5 0 -10 5 -10 10 0 6 5 10 10 10 6 0 10 -4 10 -10z
m760 -14 c0 -7 -9 -16 -20 -19 -13 -3 -20 0 -20 10 0 8 4 12 9 8 5 -3 12 -1
16 5 9 14 15 12 15 -4z m-574 -43 c-5 -11 -10 -13 -17 -6 -7 7 -7 17 3 32 10
18 14 19 16 6 2 -9 1 -23 -2 -32z m635 -16 c-18 -18 -25 1 -11 30 l14 28 4
-24 c2 -13 -1 -28 -7 -34z m507 31 c-2 -6 -10 -14 -16 -16 -7 -2 -10 2 -6 12
7 18 28 22 22 4z m326 -20 c9 -34 8 -38 -9 -38 -10 0 -15 10 -15 30 0 35 15
40 24 8z m-134 -2 c0 -11 -19 -15 -25 -6 -3 5 1 10 9 10 9 0 16 -2 16 -4z
m-764 -33 c-4 -16 -7 -36 -7 -45 0 -10 -4 -20 -10 -23 -5 -4 -9 -28 -9 -56 0
-27 -2 -49 -4 -49 -2 0 -11 -3 -20 -6 -13 -5 -16 1 -16 29 0 20 4 38 9 41 5 3
12 32 16 63 8 67 11 73 32 73 12 0 14 -6 9 -27z m621 -5 c-3 -7 -5 -2 -5 12 0
14 2 19 5 13 2 -7 2 -19 0 -25z m329 17 c13 -13 13 -15 1 -15 -8 0 -17 7 -21
15 -3 8 -3 15 0 15 3 0 12 -7 20 -15z m84 5 c0 -5 -7 -10 -15 -10 -8 0 -15 5
-15 10 0 6 7 10 15 10 8 0 15 -4 15 -10z m-477 -37 c-5 -12 -7 -12 -14 -1 -5
7 -9 9 -9 5 0 -5 -5 -5 -12 -1 -7 5 -5 11 7 21 21 15 37 1 28 -24z m267 -14
c0 -24 -23 -21 -28 4 -2 10 3 17 12 17 10 0 16 -9 16 -21z m50 1 c0 -5 -7 -10
-16 -10 -8 0 -12 5 -9 10 3 6 10 10 16 10 5 0 9 -4 9 -10z m-190 -26 c0 -8 -7
-14 -15 -14 -15 0 -21 21 -9 33 10 9 24 -2 24 -19z m68 8 c2 -7 -3 -12 -12
-12 -9 0 -16 7 -16 16 0 17 22 14 28 -4z m200 -7 c7 -15 20 -25 32 -25 24 0
25 8 3 32 -15 17 -15 18 5 18 22 0 26 -7 22 -47 -1 -17 4 -23 19 -23 21 0 37
-17 27 -27 -4 -4 -12 -1 -18 5 -7 7 -16 12 -20 12 -13 0 -9 -38 4 -42 7 -3 9
-12 4 -24 -7 -18 -8 -18 -20 -1 -7 9 -18 17 -25 17 -14 0 -15 -27 -1 -35 12
-7 4 -25 -11 -25 -5 0 -9 9 -9 21 0 11 -7 27 -15 35 -8 9 -15 22 -15 30 0 8 7
14 15 14 8 0 15 5 15 10 0 13 -23 13 -36 0 -6 -6 -15 -6 -24 0 -12 8 -13 13
-2 30 6 11 12 27 12 35 0 24 26 17 38 -10z m-1638 5 c0 -5 -4 -10 -10 -10 -5
0 -10 5 -10 10 0 6 5 10 10 10 6 0 10 -4 10 -10z m734 -5 c-4 -8 -12 -15 -20
-15 -8 0 -11 6 -8 15 4 8 12 15 20 15 8 0 11 -6 8 -15z m566 0 c0 -8 -7 -15
-15 -15 -8 0 -15 7 -15 15 0 8 7 15 15 15 8 0 15 -7 15 -15z m-470 -29 c0 -17
-14 -29 -23 -20 -8 8 3 34 14 34 5 0 9 -6 9 -14z m664 5 c7 -10 -22 -37 -30
-28 -9 8 3 37 15 37 5 0 12 -4 15 -9z m55 -15 c5 -13 17 -26 25 -29 9 -4 16
-15 16 -26 0 -19 32 -46 42 -35 3 2 3 -8 0 -23 -5 -29 -36 -66 -46 -56 -3 4
-6 1 -6 -5 0 -16 -30 -15 -31 1 -1 6 0 22 0 33 2 23 -24 40 -35 23 -3 -6 -3
-21 0 -35 6 -21 3 -25 -11 -22 -20 4 -47 53 -38 68 4 7 13 7 24 0 14 -7 24 -3
45 19 25 26 26 31 14 50 -7 11 -16 21 -21 21 -4 0 -6 -4 -2 -9 10 -17 -12 -21
-25 -6 -9 10 -9 15 -1 15 6 0 11 9 11 20 0 28 29 25 39 -4z m-129 -19 c0 -5
-4 -5 -10 -2 -5 3 -10 14 -10 23 0 15 2 15 10 2 5 -8 10 -19 10 -23z m-3590 3
c0 -19 -1 -19 -20 -3 -11 10 -20 19 -20 20 0 2 9 3 20 3 13 0 20 -7 20 -20z
m2178 2 c2 -7 -1 -12 -8 -12 -6 0 -9 4 -6 9 4 5 1 12 -4 14 -6 3 -5 4 2 3 6
-1 14 -8 16 -14z m713 -13 c-3 -23 -17 -39 -34 -39 -7 0 0 45 10 63 10 17 28
-1 24 -24z m637 -7 c2 -7 -3 -12 -12 -12 -9 0 -16 7 -16 16 0 17 22 14 28 -4z
m112 -28 c0 -15 -6 -24 -15 -24 -16 0 -19 17 -9 44 9 22 24 10 24 -20z m-33
-44 c5 -27 3 -31 -11 -29 -9 2 -16 6 -15 9 1 3 -3 15 -9 27 -7 12 -9 29 -6 37
5 13 8 14 20 1 8 -7 17 -28 21 -45z m-617 40 c0 -5 -4 -10 -10 -10 -5 0 -10 5
-10 10 0 6 5 10 10 10 6 0 10 -4 10 -10z m700 -6 c0 -17 -22 -14 -28 4 -2 7 3
12 12 12 9 0 16 -7 16 -16z m-1550 -7 c0 -14 -39 -41 -47 -33 -3 3 5 14 18 25
29 24 29 24 29 8z m40 3 c0 -5 -8 -10 -17 -10 -15 0 -16 2 -3 10 19 12 20 12
20 0z m605 -11 c4 -6 13 -8 21 -5 8 3 14 -1 14 -11 0 -15 2 -15 18 0 28 25 39
21 34 -13 -4 -27 -22 -44 -22 -20 0 17 -20 11 -27 -7 -4 -10 -11 -21 -17 -25
-7 -5 -7 -8 2 -8 7 0 15 6 18 14 7 18 34 9 34 -10 0 -16 -35 -54 -50 -54 -21
0 -60 -33 -60 -49 0 -10 -11 -28 -25 -41 -20 -19 -28 -21 -38 -11 -9 10 -9 11
5 6 13 -5 18 1 24 29 3 20 12 36 19 36 21 0 25 39 5 45 -16 5 -17 11 -8 38 5
18 11 43 12 57 2 14 4 28 4 33 3 11 30 8 37 -4z m755 -14 c0 -8 -2 -15 -4 -15
-2 0 -6 7 -10 15 -3 8 -1 15 4 15 6 0 10 -7 10 -15z m-626 -29 c-21 -15 -30
-14 -19 3 3 6 14 11 23 11 13 0 13 -2 -4 -14z m-2672 -18 c-6 -6 -15 -8 -19
-4 -4 4 -1 11 7 16 8 5 17 7 19 4 3 -2 -1 -10 -7 -16z m3338 -24 c0 -11 -5
-10 -20 3 -11 10 -20 18 -20 19 0 1 9 0 20 -3 11 -3 20 -12 20 -19z m-3291 -2
c7 -13 6 -23 -1 -30 -16 -16 -26 -15 -46 4 -15 15 -14 18 3 30 25 18 32 18 44
-4z m1921 8 c0 -5 -4 -10 -10 -10 -5 0 -10 5 -10 10 0 6 5 10 10 10 6 0 10 -4
10 -10z m704 4 c9 -3 16 -12 16 -20 0 -11 -7 -13 -27 -8 -36 9 -40 13 -23 24
18 12 15 11 34 4z m731 -23 c19 -11 19 -11 -5 -9 -16 2 -26 10 -28 23 -2 12 0
16 5 9 4 -6 17 -16 28 -23z m-111 -7 c5 -14 4 -15 -9 -4 -17 14 -19 20 -6 20
5 0 12 -7 15 -16z m-1394 -4 c0 -5 -4 -10 -10 -10 -5 0 -10 5 -10 10 0 6 5 10
10 10 6 0 10 -4 10 -10z m770 -19 c0 -6 -4 -13 -10 -16 -5 -3 -10 1 -10 9 0 9
5 16 10 16 6 0 10 -4 10 -9z m84 -10 c3 -5 -1 -11 -9 -15 -9 -3 -15 0 -15 9 0
16 16 20 24 6z m553 -33 c-3 -8 -6 -5 -6 6 -1 11 2 17 5 13 3 -3 4 -12 1 -19z
m-721 -24 c-5 -14 -9 -15 -19 -5 -9 9 -9 14 3 21 18 11 24 6 16 -16z m46 -6
c-7 -7 -12 -8 -12 -2 0 14 12 26 19 19 2 -3 -1 -11 -7 -17z m-862 3 c0 -12
-20 -25 -27 -18 -7 7 6 27 18 27 5 0 9 -4 9 -9z m579 -10 c11 -7 10 -13 -7
-31 -22 -24 -42 -20 -42 9 0 30 21 40 49 22z m205 -56 c-6 -16 -24 -21 -24 -7
0 11 11 22 21 22 5 0 6 -7 3 -15z m-271 -2 c-7 -2 -19 -2 -25 0 -7 3 -2 5 12
5 14 0 19 -2 13 -5z m137 -32 c-6 -12 -16 -18 -25 -15 -22 9 -18 28 8 39 26
12 32 4 17 -24z m70 8 c-10 -17 -14 -18 -27 -7 -14 11 -13 13 8 19 13 4 25 7
27 8 1 1 -2 -8 -8 -20z m-532 4 c-10 -2 -18 -9 -18 -14 0 -5 -5 -9 -11 -9 -8
0 -8 5 1 15 7 8 20 14 29 14 13 -1 13 -2 -1 -6z m-1860 -14 c-2 -6 -8 -10 -13
-10 -5 0 -11 4 -13 10 -2 6 4 11 13 11 9 0 15 -5 13 -11z m2242 -13 c0 -24
-25 -54 -32 -39 -3 4 -5 20 -6 36 -1 21 3 27 18 27 14 0 20 -7 20 -24z m195
14 c-3 -5 -11 -10 -16 -10 -6 0 -7 5 -4 10 3 6 11 10 16 10 6 0 7 -4 4 -10z
m-398 -52 c13 -2 12 -7 -6 -28 -13 -16 -19 -19 -15 -7 5 13 1 17 -17 17 -22 1
-23 2 -6 14 9 7 18 19 18 27 1 9 3 8 6 -3 2 -9 11 -18 20 -20z m-2017 7 c0 -8
-7 -15 -15 -15 -9 0 -12 6 -9 15 4 8 10 15 15 15 5 0 9 -7 9 -15z m118 -9 c36
-2 20 -19 -20 -20 -47 -3 -70 9 -48 24 8 5 22 7 30 4 8 -4 25 -7 38 -8z m1383
1 c-1 -12 -15 -9 -19 4 -3 6 1 10 8 8 6 -3 11 -8 11 -12z m223 -33 c3 -8 2
-12 -4 -9 -6 3 -10 10 -10 16 0 14 7 11 14 -7z m213 -6 c-3 -8 -6 -5 -6 6 -1
11 2 17 5 13 3 -3 4 -12 1 -19z m-1894 -4 c11 -11 -5 -34 -24 -34 -10 0 -19 2
-19 4 0 2 -3 11 -6 20 -5 12 0 16 18 16 14 0 27 -3 31 -6z m167 -13 c13 -25
-2 -36 -29 -21 -25 13 -44 13 -36 0 3 -5 -3 -10 -15 -10 -15 0 -20 5 -18 18 2
10 12 17 25 17 12 0 25 3 29 8 13 13 33 7 44 -12z m2036 8 c3 -6 -3 -21 -15
-32 l-21 -21 0 32 c0 32 21 45 36 21z m-1326 -4 c0 -2 -10 -10 -22 -16 -21
-11 -22 -11 -9 4 13 16 31 23 31 12z m75 -14 c-3 -6 -11 -11 -16 -11 -5 0 -4
6 3 14 14 16 24 13 13 -3z m-708 -7 c-3 -3 -12 -4 -19 -1 -8 3 -5 6 6 6 11 1
17 -2 13 -5z m773 -26 c0 -5 9 -7 19 -3 11 3 22 1 25 -4 11 -16 -9 -21 -47
-10 -35 9 -44 19 -31 32 8 8 34 -3 34 -15z m-730 2 c0 -5 -4 -10 -10 -10 -5 0
-10 5 -10 10 0 6 5 10 10 10 6 0 10 -4 10 -10z m566 3 c-10 -10 -46 -11 -46
-1 0 4 12 8 27 8 14 0 23 -3 19 -7z m278 -11 c2 -4 -4 -9 -15 -9 -10 -1 -19 2
-19 8 0 11 27 12 34 1z m-1114 -38 c0 -2 -7 -4 -15 -4 -8 0 -15 4 -15 10 0 5
7 7 15 4 8 -4 15 -8 15 -10z m584 -10 c24 -9 19 -21 -9 -26 -30 -6 -39 1 -24
19 13 15 12 15 33 7z m169 -51 c-6 -15 -29 -17 -38 -3 -4 6 -9 9 -13 6 -4 -2
-16 0 -27 5 -14 6 -4 8 32 7 38 -1 50 -5 46 -15z m-202 -24 c-16 -6 -28 -6
-35 1 -7 7 1 10 25 9 32 0 33 -1 10 -10z m-171 -59 c0 -5 -5 -10 -11 -10 -5 0
-7 5 -4 10 3 6 8 10 11 10 2 0 4 -4 4 -10z m215 0 c3 -5 1 -10 -4 -10 -6 0
-11 5 -11 10 0 6 2 10 4 10 3 0 8 -4 11 -10z m125 0 c0 -5 -10 -10 -22 -9 -22
0 -22 1 -3 9 11 5 21 9 23 9 1 1 2 -3 2 -9z m145 -110 c-3 -5 -14 -10 -23 -10
-15 0 -15 2 -2 10 20 13 33 13 25 0z m115 0 c0 -5 -8 -10 -17 -10 -15 0 -16 2
-3 10 19 12 20 12 20 0z m-330 -70 c0 -5 -7 -10 -15 -10 -8 0 -15 5 -15 10 0
6 7 10 15 10 8 0 15 -4 15 -10z m324 -55 c-4 -8 -10 -12 -15 -9 -11 6 -2 24
11 24 5 0 7 -7 4 -15z m96 1 c0 -3 -4 -8 -10 -11 -5 -3 -10 -1 -10 4 0 6 5 11
10 11 6 0 10 -2 10 -4z m80 -36 c0 -5 -7 -10 -15 -10 -8 0 -15 5 -15 10 0 6 7
10 15 10 8 0 15 -4 15 -10z"/>
<path d="M4209 1455 c-5 -20 -4 -32 4 -42 16 -22 24 -14 19 17 -4 25 -19 42
-23 25z"/>
<path d="M62 4627 c-30 -85 -45 -371 -23 -469 5 -24 15 -74 21 -113 7 -38 15
-74 19 -80 3 -5 6 -12 7 -15 5 -26 17 -69 25 -85 5 -11 15 -38 23 -60 23 -67
215 -444 236 -465 3 -3 21 -27 40 -55 40 -58 33 -49 108 -145 32 -41 70 -88
85 -105 14 -16 58 -68 97 -115 40 -47 82 -96 94 -110 12 -14 35 -43 51 -65 17
-22 35 -45 40 -51 6 -7 19 -24 30 -40 11 -15 26 -33 33 -40 6 -7 12 -15 12
-19 0 -3 8 -18 18 -33 145 -213 160 -344 52 -458 -43 -46 -89 -64 -160 -64
-75 0 -101 14 -209 109 -123 109 -205 257 -232 416 -6 39 -15 75 -20 81 -5 6
-11 77 -14 159 -2 81 -7 150 -9 152 -12 12 -36 -74 -43 -154 -12 -127 2 -375
27 -474 11 -45 20 -88 20 -96 0 -8 11 -39 25 -69 14 -30 25 -59 25 -64 0 -6 7
-10 15 -10 16 0 44 -49 38 -67 -2 -6 5 -14 16 -18 11 -3 18 -12 15 -20 -3 -7
3 -16 15 -20 24 -7 30 -31 17 -68 -8 -22 -8 -30 4 -37 8 -5 18 -6 23 -3 4 3
22 -10 38 -28 16 -18 29 -29 29 -25 0 5 7 3 15 -4 9 -7 14 -19 11 -26 -3 -8 0
-11 10 -7 10 3 14 13 11 25 -4 14 -2 18 9 14 8 -3 21 -9 29 -12 8 -3 15 -1 15
5 0 6 -4 11 -10 11 -5 0 -10 5 -10 11 0 5 4 8 9 5 5 -4 16 -3 25 0 21 8 22 72
1 80 -24 10 -19 37 6 31 12 -3 33 2 47 11 13 9 43 17 65 18 73 4 107 14 108
32 0 10 3 12 6 4 9 -24 22 -1 13 23 -7 19 -6 25 4 25 7 0 19 14 26 30 8 18 20
30 31 30 14 0 19 7 19 29 0 16 7 45 15 65 8 20 15 38 15 41 0 3 0 9 0 14 0 12
57 31 74 25 19 -7 26 41 9 59 -12 11 -12 19 -4 35 6 11 11 30 11 41 0 15 6 21
21 21 16 0 19 4 14 21 -5 15 -4 19 4 15 7 -5 11 2 11 18 0 30 -24 35 -35 9 -6
-16 -8 -15 -16 5 -7 18 -14 22 -29 17 -11 -4 -20 -2 -20 4 0 6 6 11 14 11 10
0 6 9 -12 28 -15 16 -29 29 -32 29 -3 0 -9 1 -15 2 -5 1 -4 5 4 10 12 8 13 12
1 26 -7 9 -19 14 -26 11 -7 -3 -15 2 -18 10 -10 25 -7 31 15 37 12 3 19 12 17
22 -4 21 42 57 74 59 17 1 24 8 26 26 2 14 11 33 20 43 14 16 14 20 2 27 -12
7 -12 12 3 28 9 10 17 22 17 27 0 5 -6 1 -12 -8 -9 -11 -18 -14 -27 -8 -9 6
-10 11 -2 15 6 4 11 12 11 17 0 6 -4 8 -9 4 -5 -3 -12 -1 -16 5 -3 5 1 10 9
10 9 0 16 4 16 9 0 5 -11 8 -25 6 -19 -2 -25 2 -25 18 0 11 -3 17 -7 14 -3 -4
-16 1 -27 12 -29 25 -61 31 -85 15 -10 -8 -26 -11 -34 -8 -19 7 -27 -23 -14
-53 10 -22 63 -51 74 -39 3 3 0 6 -8 6 -17 0 -42 37 -30 45 12 7 41 -5 41 -17
0 -6 7 -8 15 -4 17 6 21 -19 5 -29 -6 -4 -9 -14 -6 -23 8 -27 -16 -47 -57 -48
-35 0 -38 2 -33 22 4 14 1 24 -10 28 -22 9 -24 8 -24 -9 0 -8 -6 -15 -14 -15
-26 0 -28 20 -4 41 16 15 18 19 6 15 -23 -7 -33 11 -17 30 6 8 9 17 6 20 -9 9
-28 -6 -22 -17 13 -19 -35 -8 -62 15 -22 20 -26 27 -15 37 10 11 12 9 12 -8 0
-15 6 -20 24 -20 19 0 23 5 22 23 -1 15 -7 24 -18 24 -9 0 -21 7 -26 16 -7 13
-13 14 -31 5 -17 -10 -22 -9 -27 3 -8 20 20 48 40 40 11 -4 16 -1 16 10 0 11
-9 16 -30 16 -16 0 -30 -5 -30 -11 0 -5 -4 -8 -9 -4 -5 3 -16 -2 -24 -10 -18
-17 -37 -20 -37 -5 0 6 5 10 11 10 7 0 9 9 6 21 -3 12 1 27 12 38 10 10 20 25
24 34 11 29 -16 19 -46 -15 -28 -33 -29 -33 -23 -6 4 16 1 28 -7 32 -6 3 -3 4
7 3 10 -1 21 3 23 9 4 12 -60 34 -100 34 -36 0 -43 17 -15 40 l23 19 -24 1
c-26 0 -71 42 -71 66 0 12 4 12 20 4 11 -6 20 -17 20 -24 0 -8 10 -11 29 -8
21 3 28 8 24 19 -3 8 -15 13 -27 11 -44 -5 -61 29 -29 64 15 17 15 18 -4 18
-14 0 -20 -6 -19 -17 1 -12 -7 -19 -23 -21 -18 -3 -22 0 -18 11 3 8 1 19 -5
25 -8 8 -5 14 12 20 13 5 19 12 13 15 -5 4 -24 1 -40 -5 -26 -10 -34 -9 -47 4
-9 9 -24 14 -36 11 -11 -3 -20 -1 -20 5 0 10 46 22 87 22 15 0 23 5 20 13 -2
7 -22 12 -50 12 -25 1 -49 4 -53 8 -4 4 0 7 10 7 9 0 35 12 59 27 32 21 38 28
24 31 -10 2 -29 -3 -42 -12 -27 -18 -65 -21 -65 -6 0 6 9 10 20 10 11 0 20 5
20 10 0 6 -13 10 -30 10 -16 0 -30 5 -30 10 0 6 -7 10 -16 10 -8 0 -13 4 -9 9
7 13 -15 26 -45 26 -14 0 -24 5 -23 12 2 7 -6 17 -17 23 -22 12 -18 30 6 30 8
0 14 -9 14 -20 0 -11 6 -20 13 -20 22 0 26 11 11 28 -8 10 -24 28 -34 42 -18
24 -19 24 -33 6 -16 -21 -50 -18 -55 6 -3 13 3 15 28 11 28 -4 31 -2 28 18 -2
12 -10 25 -18 29 -8 4 -28 14 -43 21 -16 7 -33 22 -39 34 -10 18 -10 19 5 6
15 -11 17 -11 17 2 0 18 -24 29 -45 21 -18 -7 -19 0 -5 27 6 10 18 19 27 19
13 0 13 2 2 16 -7 9 -15 33 -16 53 -3 33 -5 54 -16 151 -2 19 1 38 6 42 8 5 8
22 0 60 -11 51 -10 54 15 80 25 27 25 28 7 48 -22 24 -41 26 -53 4 -12 -21 -3
84 9 107 4 9 2 31 -5 52 l-12 36 -12 -32z m248 -956 c0 -6 -4 -13 -10 -16 -5
-3 -10 1 -10 9 0 9 5 16 10 16 6 0 10 -4 10 -9z m70 -76 c0 -16 -9 -19 -34 -9
-25 9 -19 24 9 24 16 0 25 -6 25 -15z m120 -129 c0 -11 -19 -15 -25 -6 -3 5 1
10 9 10 9 0 16 -2 16 -4z m80 -156 c0 -5 -7 -10 -15 -10 -8 0 -15 5 -15 10 0
6 7 10 15 10 8 0 15 -4 15 -10z m98 -132 c-7 -19 -35 -21 -41 -3 -5 11 0 15
19 15 16 0 24 -5 22 -12z m119 -144 c-9 -9 -28 6 -21 18 4 6 10 6 17 -1 6 -6
8 -13 4 -17z m238 -34 c-3 -5 -10 -10 -16 -10 -5 0 -9 5 -9 10 0 6 7 10 16 10
8 0 12 -4 9 -10z m-131 -66 c25 -9 19 -24 -9 -24 -16 0 -25 6 -25 15 0 16 9
19 34 9z m242 -2 c20 -13 36 -132 18 -132 -15 0 -22 18 -19 48 1 13 -4 22 -12
22 -8 0 -13 -8 -12 -17 1 -10 1 -32 0 -50 -1 -27 -4 -30 -22 -26 -20 6 -21 7
-5 19 9 6 16 23 15 35 -8 89 5 123 37 101z m-76 -112 c0 -13 -7 -20 -20 -20
-19 0 -27 20 -13 33 13 14 33 6 33 -13z m15 -72 c4 4 6 0 3 -8 -5 -16 -58 -27
-58 -13 0 18 23 33 35 23 7 -5 15 -6 20 -2z m105 -422 c0 -3 -4 -8 -10 -11 -5
-3 -10 -1 -10 4 0 6 5 11 10 11 6 0 10 -2 10 -4z m-546 -482 c5 -14 4 -15 -9
-4 -17 14 -19 20 -6 20 5 0 12 -7 15 -16z m73 -16 c-3 -8 -6 -5 -6 6 -1 11 2
17 5 13 3 -3 4 -12 1 -19z"/>
<path d="M1940 4520 c0 -5 5 -10 11 -10 5 0 7 5 4 10 -3 6 -8 10 -11 10 -2 0
-4 -4 -4 -10z"/>
<path d="M170 4250 c0 -5 7 -10 16 -10 8 0 12 5 9 10 -3 6 -10 10 -16 10 -5 0
-9 -4 -9 -10z"/>
<path d="M178 4183 c6 -2 18 -2 25 0 6 3 1 5 -13 5 -14 0 -19 -2 -12 -5z"/>
<path d="M306 3915 c-3 -8 -1 -15 4 -15 13 0 22 18 11 24 -5 3 -11 -1 -15 -9z"/>
<path d="M345 3880 c-4 -6 3 -10 14 -10 25 0 27 6 6 13 -8 4 -17 2 -20 -3z"/>
<path d="M265 3861 c-10 -17 12 -21 25 -6 10 12 10 15 -3 15 -9 0 -18 -4 -22
-9z"/>
<path d="M465 3859 c-4 -6 -5 -12 -2 -15 2 -3 7 2 10 11 7 17 1 20 -8 4z"/>
<path d="M302 3828 c-21 -21 -13 -27 31 -24 23 2 44 4 47 5 6 1 -50 31 -59 31
-4 0 -12 -5 -19 -12z"/>
<path d="M396 3816 c7 -18 44 -17 44 1 0 7 -11 13 -25 13 -17 0 -23 -4 -19
-14z"/>
<path d="M500 3799 c0 -5 5 -7 10 -4 6 3 10 8 10 11 0 2 -4 4 -10 4 -5 0 -10
-5 -10 -11z"/>
<path d="M1235 3770 c3 -5 8 -10 11 -10 2 0 4 5 4 10 0 6 -5 10 -11 10 -5 0
-7 -4 -4 -10z"/>
<path d="M340 3754 c-10 -11 -10 -14 1 -14 8 0 20 4 27 9 11 7 11 9 -1 14 -9
3 -21 -1 -27 -9z"/>
<path d="M433 3763 c-13 -2 -23 -8 -23 -12 0 -5 11 -6 25 -3 14 2 25 8 25 13
0 5 -1 8 -2 8 -2 -1 -13 -4 -25 -6z"/>
<path d="M477 3753 c-4 -3 -7 -14 -7 -23 0 -13 7 -16 30 -12 25 4 28 7 19 23
-10 19 -30 25 -42 12z"/>
<path d="M1275 3730 c-3 -5 1 -10 9 -10 9 0 16 5 16 10 0 6 -4 10 -9 10 -6 0
-13 -4 -16 -10z"/>
<path d="M3667 3693 c-10 -9 -9 -33 1 -33 4 0 8 9 9 20 2 21 0 24 -10 13z"/>
<path d="M515 3630 c-4 -6 9 -10 32 -10 28 0 34 3 23 10 -20 13 -47 13 -55 0z"/>
<path d="M1343 3621 c-10 -15 -9 -22 2 -31 8 -7 15 -25 15 -41 0 -15 4 -30 9
-33 4 -3 6 6 3 21 -4 21 -2 25 12 20 10 -4 16 -1 16 8 0 8 -4 15 -10 15 -5 0
-16 14 -22 30 -12 29 -14 30 -25 11z"/>
<path d="M608 3607 c-7 -8 -20 -16 -28 -20 -13 -5 -13 -6 0 -6 8 -1 29 8 45
19 20 13 25 20 13 20 -9 0 -23 -6 -30 -13z"/>
<path d="M537 3560 c3 -11 9 -17 14 -14 14 8 10 34 -5 34 -9 0 -12 -7 -9 -20z"/>
<path d="M706 3464 c-20 -19 -20 -20 3 -20 11 0 22 8 24 18 6 22 -6 23 -27 2z"/>
<path d="M3635 3450 c-3 -5 -1 -10 4 -10 6 0 11 5 11 10 0 6 -2 10 -4 10 -3 0
-8 -4 -11 -10z"/>
<path d="M630 3440 c0 -5 12 -10 28 -9 24 0 25 1 7 9 -27 12 -35 12 -35 0z"/>
<path d="M1386 3418 c23 -28 37 -38 43 -32 6 6 -40 54 -52 54 -6 0 -2 -10 9
-22z"/>
<path d="M780 3411 c0 -14 5 -19 15 -14 17 6 15 25 -3 31 -7 2 -12 -5 -12 -17z"/>
<path d="M670 3400 c0 -5 6 -13 13 -17 8 -4 17 -16 20 -26 6 -17 8 -17 23 -3
8 9 20 14 25 11 5 -4 9 -1 9 5 0 6 -14 13 -30 17 -17 3 -33 10 -36 14 -7 12
-24 11 -24 -1z"/>
<path d="M1443 3345 c-7 -8 -13 -21 -13 -30 0 -8 -5 -15 -11 -15 -6 0 -9 -8
-7 -17 2 -9 5 -15 8 -14 3 1 18 -2 33 -8 22 -9 28 -8 25 1 -3 7 -10 14 -16 14
-7 1 -14 2 -17 3 -3 0 4 11 15 23 21 23 23 49 5 54 -5 2 -16 -3 -22 -11z"/>
<path d="M772 3335 c10 -10 -17 -35 -36 -35 -9 0 -16 5 -16 10 0 18 -18 11
-23 -9 -4 -17 0 -19 27 -17 17 2 38 6 46 9 8 3 24 7 35 9 32 5 24 33 -10 36
-16 2 -27 1 -23 -3z"/>
<path d="M3631 3328 c0 -7 4 -22 9 -33 7 -17 9 -15 9 13 1 17 -3 32 -9 32 -5
0 -10 -6 -9 -12z"/>
<path d="M1500 3300 c0 -10 9 -24 20 -30 23 -12 27 -1 10 31 -14 25 -30 24
-30 -1z"/>
<path d="M780 3266 c0 -9 30 -14 35 -6 4 6 -3 10 -14 10 -12 0 -21 -2 -21 -4z"/>
<path d="M833 3253 c-7 -2 -13 -11 -13 -19 0 -8 6 -14 13 -14 21 0 40 17 33
29 -8 12 -13 12 -33 4z"/>
<path d="M3667 3253 c-8 -14 -19 -73 -14 -73 15 0 37 34 37 56 0 23 -14 33
-23 17z"/>
<path d="M2062 3220 c8 -13 15 -16 19 -8 10 15 2 28 -17 28 -12 0 -12 -4 -2
-20z"/>
<path d="M881 3207 c-9 -11 -5 -14 19 -15 20 0 30 4 30 14 0 18 -34 18 -49 1z"/>
<path d="M795 3189 c-7 -10 10 -29 25 -29 10 0 34 19 30 23 -14 13 -49 16 -55
6z"/>
<path d="M3637 3141 c-2 -10 -1 -25 4 -32 6 -10 9 -4 9 19 0 36 -5 42 -13 13z"/>
<path d="M1732 3138 c-17 -17 -15 -39 3 -32 9 4 15 0 15 -10 0 -9 8 -16 20
-16 15 0 20 6 19 28 l-1 27 -7 -25 -7 -25 -12 22 c-15 27 -15 36 -2 28 6 -3
10 -1 10 4 0 15 -23 14 -38 -1z"/>
<path d="M866 3114 c-11 -28 -7 -34 24 -34 17 0 30 5 30 10 0 6 -6 9 -12 8 -7
-2 -12 5 -12 15 2 21 -22 23 -30 1z"/>
<path d="M942 3098 c6 -18 25 -20 31 -3 5 10 0 15 -14 15 -12 0 -19 -5 -17
-12z"/>
<path d="M1006 3095 c-3 -9 0 -15 8 -15 8 0 23 -3 33 -7 17 -6 17 -5 -1 15
-22 26 -32 27 -40 7z"/>
<path d="M3633 3074 c1 -11 -4 -28 -12 -37 -7 -10 -9 -17 -3 -17 21 0 33 27
22 51 -9 21 -10 21 -7 3z"/>
<path d="M1687 3061 c-3 -14 -1 -21 10 -21 8 0 12 -4 8 -9 -3 -5 -1 -12 5 -16
15 -9 12 28 -3 50 -13 17 -14 17 -20 -4z"/>
<path d="M933 3043 c-18 -7 -16 -23 2 -23 8 0 15 5 15 11 0 5 5 7 10 4 6 -3
10 -1 10 4 0 11 -16 13 -37 4z"/>
<path d="M1896 3022 c-11 -19 66 -73 82 -58 3 3 -7 10 -21 15 -14 5 -32 19
-40 31 -8 12 -18 17 -21 12z"/>
<path d="M1995 2997 c11 -9 29 -17 39 -17 20 0 15 12 -7 16 -7 1 -21 5 -32 9
l-20 8 20 -16z"/>
<path d="M960 2976 c0 -2 7 -9 15 -16 12 -10 15 -10 15 4 0 9 -7 16 -15 16 -8
0 -15 -2 -15 -4z"/>
<path d="M2065 2960 c3 -5 8 -10 11 -10 2 0 4 5 4 10 0 6 -5 10 -11 10 -5 0
-7 -4 -4 -10z"/>
<path d="M1140 2717 c0 -13 -5 -28 -12 -35 -13 -13 -5 -27 11 -17 6 3 11 17
11 31 0 15 6 24 15 24 8 0 15 5 15 10 0 6 -9 10 -20 10 -14 0 -20 -7 -20 -23z"/>
<path d="M1410 2700 c0 -5 7 -10 16 -10 8 0 12 5 9 10 -3 6 -10 10 -16 10 -5
0 -9 -4 -9 -10z"/>
<path d="M1145 2610 c3 -5 8 -10 11 -10 2 0 4 5 4 10 0 6 -5 10 -11 10 -5 0
-7 -4 -4 -10z"/>
<path d="M3370 2345 c0 -9 5 -15 11 -13 6 2 11 8 11 13 0 5 -5 11 -11 13 -6 2
-11 -4 -11 -13z"/>
<path d="M3284 2306 c1 -50 3 -51 15 -8 7 22 6 34 -3 41 -10 9 -13 1 -12 -33z"/>
<path d="M3414 2333 c4 -7 3 -13 -1 -13 -5 0 -9 -9 -10 -20 -2 -25 13 -26 26
-1 8 14 7 22 -6 32 -12 10 -15 10 -9 2z"/>
<path d="M3120 2277 c0 -7 6 -19 12 -25 10 -10 10 -15 -2 -22 -18 -11 -8 -22
14 -14 22 9 20 47 -4 62 -16 10 -20 10 -20 -1z"/>
<path d="M3455 2280 c3 -5 8 -10 11 -10 2 0 4 5 4 10 0 6 -5 10 -11 10 -5 0
-7 -4 -4 -10z"/>
<path d="M1390 2264 c0 -8 5 -12 10 -9 6 4 8 11 5 16 -9 14 -15 11 -15 -7z"/>
<path d="M3410 2260 c0 -5 5 -10 10 -10 6 0 10 5 10 10 0 6 -4 10 -10 10 -5 0
-10 -4 -10 -10z"/>
<path d="M3293 2148 c2 -38 10 -47 23 -27 3 6 1 15 -6 19 -6 4 -11 10 -10 14
1 4 -1 12 -4 19 -2 6 -4 -5 -3 -25z"/>
<path d="M3347 2156 c-3 -8 0 -21 6 -30 10 -14 12 -12 13 14 1 31 -10 40 -19
16z"/>
<path d="M2976 2124 c-4 -10 -1 -14 6 -12 15 5 23 28 10 28 -5 0 -13 -7 -16
-16z"/>
<path d="M3067 2123 c-9 -9 -9 -43 1 -43 4 0 8 11 8 25 2 27 1 29 -9 18z"/>
<path d="M2217 2113 c-4 -3 -7 -13 -7 -22 1 -13 3 -13 11 2 11 19 8 33 -4 20z"/>
<path d="M3126 2088 c-9 -34 -8 -38 9 -38 10 0 15 10 15 30 0 35 -15 40 -24 8z"/>
<path d="M3275 2080 c3 -5 8 -10 11 -10 2 0 4 5 4 10 0 6 -5 10 -11 10 -5 0
-7 -4 -4 -10z"/>
<path d="M2212 2040 c0 -14 2 -19 5 -12 2 6 2 18 0 25 -3 6 -5 1 -5 -13z"/>
<path d="M3276 2032 c-19 -25 -19 -25 2 -20 12 4 20 2 16 -3 -3 -5 -12 -9 -20
-9 -9 0 -14 -11 -14 -30 0 -16 5 -30 11 -30 7 0 9 10 7 24 -4 19 0 26 19 30
16 5 23 13 23 32 0 14 -4 23 -9 20 -5 -4 -11 -2 -13 3 -1 5 -12 -2 -22 -17z"/>
<path d="M3087 2033 c-13 -12 -7 -31 11 -35 12 -4 17 2 18 19 2 22 -15 31 -29
16z"/>
<path d="M2461 2014 c0 -11 3 -14 6 -6 3 7 2 16 -1 19 -3 4 -6 -2 -5 -13z"/>
<path d="M2982 2013 c4 -24 23 -27 25 -3 1 12 -4 20 -13 20 -9 0 -14 -7 -12
-17z"/>
<path d="M3207 1996 c-10 -10 -17 -33 -17 -54 1 -34 2 -36 15 -18 8 10 12 23
9 28 -3 5 0 15 6 23 19 23 7 41 -13 21z"/>
<path d="M2175 1980 c-3 -5 -1 -10 4 -10 6 0 11 5 11 10 0 6 -2 10 -4 10 -3 0
-8 -4 -11 -10z"/>
<path d="M3117 1973 c-12 -12 -7 -43 7 -43 13 0 26 20 26 41 0 10 -23 12 -33
2z"/>
<path d="M3002 1959 c-18 -7 -23 -15 -20 -36 3 -27 28 -46 28 -21 0 7 7 25 14
41 16 29 14 31 -22 16z"/>
<path d="M2426 1945 c-3 -8 -1 -15 4 -15 6 0 10 7 10 15 0 8 -2 15 -4 15 -2 0
-6 -7 -10 -15z"/>
<path d="M2928 1932 c-22 -4 -24 -32 -3 -32 9 0 18 7 22 15 7 19 3 22 -19 17z"/>
<path d="M3110 1907 c0 -5 -7 -7 -15 -3 -11 4 -15 -2 -15 -23 0 -16 -3 -36 -6
-44 -4 -12 0 -14 15 -10 12 3 22 17 26 33 9 39 35 48 36 12 l0 -27 10 24 c5
14 7 31 5 38 -6 14 -56 14 -56 0z"/>
<path d="M2852 1849 c-12 -22 -22 -50 -22 -61 0 -10 -4 -17 -9 -14 -5 3 -15
-2 -22 -11 -12 -15 -11 -16 9 -11 25 7 29 -4 7 -26 -8 -8 -11 -17 -7 -20 5 -3
15 6 22 19 7 14 17 25 21 25 5 0 11 17 15 38 4 20 13 45 20 56 12 18 9 46 -5
46 -4 0 -17 -18 -29 -41z"/>
<path d="M3032 1850 c0 -14 2 -19 5 -12 2 6 2 18 0 25 -3 6 -5 1 -5 -13z"/>
<path d="M2985 1851 c-3 -6 -10 -9 -15 -6 -9 6 -30 -25 -30 -44 0 -6 7 -11 15
-11 8 0 15 5 15 12 0 6 7 20 17 30 9 10 14 21 11 24 -3 3 -9 0 -13 -5z"/>
<path d="M3104 1796 c3 -14 1 -28 -5 -32 -8 -4 -7 -9 2 -15 11 -6 10 -11 -3
-26 -8 -10 -18 -29 -22 -43 -3 -14 -3 -20 0 -13 3 7 12 9 20 6 10 -4 12 0 8
11 -4 9 0 24 9 34 13 15 15 38 9 90 -1 6 -7 12 -13 12 -7 0 -9 -10 -5 -24z"/>
<path d="M3240 1801 c-5 -11 -20 -21 -32 -23 -17 -2 -24 -11 -26 -32 -2 -16 1
-33 7 -39 8 -8 11 -4 11 15 0 25 21 53 33 42 3 -3 14 3 24 13 16 16 17 22 7
31 -10 10 -15 8 -24 -7z"/>
<path d="M3027 1770 c-21 -25 -21 -34 -2 -50 13 -10 15 -9 15 8 0 12 7 25 16
30 9 5 14 14 10 21 -10 16 -19 14 -39 -9z"/>
<path d="M2395 1759 c-5 -14 -2 -25 6 -30 11 -7 10 -9 -3 -9 -20 0 -24 -15 -8
-25 6 -3 10 -1 10 4 0 6 7 11 17 11 15 0 15 -2 -1 -19 -10 -11 -15 -25 -11
-31 12 -19 36 10 34 44 0 17 2 42 5 56 4 14 4 19 0 13 -4 -9 -11 -10 -24 -3
-15 8 -20 6 -25 -11z"/>
<path d="M637 1733 c-3 -5 -1 -17 4 -28 7 -17 8 -17 8 8 1 27 -4 34 -12 20z"/>
<path d="M2226 1721 c-4 -5 3 -7 14 -4 23 6 26 13 6 13 -8 0 -17 -4 -20 -9z"/>
<path d="M2860 1716 c0 -24 17 -28 23 -6 3 13 0 20 -9 20 -8 0 -14 -6 -14 -14z"/>
<path d="M2944 1703 c-10 -15 -24 -32 -31 -36 -7 -4 -13 -20 -13 -35 0 -17
-10 -34 -27 -48 -16 -12 -25 -25 -22 -29 4 -3 13 0 20 8 8 7 22 16 32 20 9 3
17 16 17 27 0 11 5 20 10 20 6 0 10 6 8 13 -3 17 13 61 26 69 6 4 8 10 4 13
-4 4 -15 -6 -24 -22z"/>
<path d="M3120 1695 c0 -17 4 -23 14 -19 8 3 12 13 9 25 -7 27 -23 24 -23 -6z"/>
<path d="M3040 1679 c0 -16 -5 -20 -19 -16 -23 6 -51 -10 -51 -28 0 -20 16
-19 24 0 3 8 16 15 30 15 24 0 43 34 25 46 -5 3 -9 -5 -9 -17z"/>
<path d="M2838 1679 c-10 -5 -18 -18 -18 -27 0 -10 -5 -23 -12 -30 -7 -7 -8
-12 -2 -12 10 0 34 33 46 63 8 20 9 20 -14 6z"/>
<path d="M3102 1640 c-18 -8 -21 -15 -16 -35 3 -14 2 -25 -4 -25 -10 0 -23
-36 -15 -43 10 -10 53 41 47 56 -3 8 -1 25 6 36 6 12 9 21 8 20 -2 0 -13 -4
-26 -9z"/>
<path d="M2357 1620 c-3 -11 -2 -20 2 -20 5 0 16 9 26 20 18 19 17 20 -2 20
-12 0 -23 -8 -26 -20z"/>
<path d="M2745 1610 c3 -5 8 -10 11 -10 2 0 4 5 4 10 0 6 -5 10 -11 10 -5 0
-7 -4 -4 -10z"/>
<path d="M2428 1603 c7 -3 16 -2 19 1 4 3 -2 6 -13 5 -11 0 -14 -3 -6 -6z"/>
<path d="M2976 1592 c-4 -10 -8 -37 -10 -59 -2 -22 -6 -45 -10 -51 -3 -6 -2
-13 4 -17 5 -3 10 -2 10 4 0 5 6 16 13 23 6 8 18 24 25 36 10 19 10 22 -4 22
-12 0 -14 6 -9 30 7 33 -10 43 -19 12z"/>
<path d="M3146 1581 c-4 -5 -3 -17 1 -27 6 -16 7 -16 20 2 7 10 13 21 13 26 0
11 -27 10 -34 -1z"/>
<path d="M2230 1565 c0 -8 4 -15 9 -15 5 0 11 7 15 15 3 9 0 15 -9 15 -8 0
-15 -7 -15 -15z"/>
<path d="M678 1558 c9 -9 15 -9 24 0 9 9 7 12 -12 12 -19 0 -21 -3 -12 -12z"/>
<path d="M2865 1513 c-40 -6 -47 -15 -36 -44 l9 -24 11 28 c6 16 15 26 20 23
12 -8 41 3 41 15 0 5 -3 8 -7 8 -5 -1 -21 -4 -38 -6z"/>
<path d="M710 1482 c0 -14 11 -21 26 -15 21 8 17 23 -6 23 -11 0 -20 -4 -20
-8z"/>
<path d="M2155 1459 c-11 -16 -1 -19 13 -3 7 8 8 14 3 14 -5 0 -13 -5 -16 -11z"/>
<path d="M780 1445 c0 -8 8 -11 20 -8 11 3 20 7 20 8 0 1 -9 5 -20 8 -12 3
-20 0 -20 -8z"/>
<path d="M2909 1447 c-9 -7 -14 -18 -12 -24 3 -7 0 -13 -6 -13 -16 0 -61 -42
-61 -57 0 -7 7 -13 15 -13 8 0 15 7 15 15 0 8 5 15 10 15 6 0 19 9 30 20 11
11 20 25 20 30 0 6 5 10 10 10 6 0 10 7 10 15 0 18 -9 19 -31 2z"/>
<path d="M2757 1384 c-4 -4 -7 -11 -7 -15 0 -10 24 -5 28 6 4 12 -12 18 -21 9z"/>
<path d="M2200 1360 c-13 -8 -12 -10 3 -10 9 0 17 5 17 10 0 12 -1 12 -20 0z"/>
<path d="M855 1330 c-4 -6 -15 -10 -26 -10 -12 0 -19 -7 -19 -20 0 -12 5 -17
14 -14 8 3 17 1 20 -4 3 -6 15 -8 26 -5 11 3 20 0 20 -6 0 -6 19 -11 46 -11
49 0 59 22 13 29 -13 1 -27 8 -31 14 -4 7 -11 7 -22 -2 -15 -13 -36 -8 -36 9
0 5 8 10 18 12 16 3 16 4 0 10 -10 4 -20 3 -23 -2z"/>
<path d="M2075 1319 c-4 -6 -5 -12 -2 -15 2 -3 7 2 10 11 7 17 1 20 -8 4z"/>
<path d="M1010 1266 c0 -9 8 -14 20 -13 24 2 21 21 -3 25 -10 2 -17 -3 -17
-12z"/>
<path d="M1090 1250 c-20 -12 -10 -19 14 -10 11 3 15 9 10 13 -6 3 -16 2 -24
-3z"/>
<path d="M2820 1235 c-8 -9 -8 -15 -2 -15 12 0 26 19 19 26 -2 2 -10 -2 -17
-11z"/>
<path d="M2195 1183 c-27 -7 -39 -19 -26 -27 6 -4 11 -2 11 3 0 6 12 11 28 11
15 0 34 5 42 10 12 8 10 9 -10 9 -14 -1 -34 -3 -45 -6z"/>
<path d="M1750 1129 c0 -5 5 -7 10 -4 6 3 10 8 10 11 0 2 -4 4 -10 4 -5 0 -10
-5 -10 -11z"/>
<path d="M1610 1110 c0 -5 6 -10 14 -10 8 0 18 5 21 10 3 6 -3 10 -14 10 -12
0 -21 -4 -21 -10z"/>
<path d="M1860 1090 c0 -5 11 -10 25 -10 14 0 25 5 25 10 0 6 -11 10 -25 10
-14 0 -25 -4 -25 -10z"/>
<path d="M1316 1047 c19 -26 38 -32 68 -21 13 5 13 8 2 19 -7 8 -22 14 -32 13
-11 0 -28 3 -38 7 -19 8 -19 8 0 -18z"/>
<path d="M1330 990 c0 -5 4 -10 9 -10 6 0 13 5 16 10 3 6 -1 10 -9 10 -9 0
-16 -4 -16 -10z"/>
</g>
</svg>
