<svg width="0" height="0"><symbol xmlns="http://www.w3.org/2000/svg" id="arrow-pointer" fill="none" viewBox="0 0 20 20"><g id="Frame" clip-path="url(#a)"><path id="Vector" stroke="currentColor" stroke-linecap="round" stroke-linejoin="round" stroke-width="1.5" d="M16.214 4 11.88 16a.367.367 0 0 1-.667 0l-1.7-5.3-5.3-1.7a.367.367 0 0 1 0-.667l12-4.333Z"/></g><defs><clipPath id="a"><path fill="currentColor" d="M0 0h20v20H0z"/></clipPath></defs></symbol><symbol xmlns="http://www.w3.org/2000/svg" id="attachment" fill="none" viewBox="0 0 19 20"><path fill="currentColor" stroke="currentColor" stroke-width=".1" d="m15.016 10.133-.001.001-6.91 7.042.036.035-.036-.035a3.287 3.287 0 0 1-2.346.991c-.88 0-1.724-.356-2.346-.99a3.416 3.416 0 0 1-.973-2.393c0-.897.35-1.758.972-2.392L13.24 2.378c.183-.186.4-.334.64-.435a1.939 1.939 0 0 1 2.146.435 2.009 2.009 0 0 1 .578 1.42 2.044 2.044 0 0 1-.578 1.422l.036.035-.036-.035-9.83 10.021a.618.618 0 0 1-.882-.006.643.643 0 0 1 .006-.901l7.015-7.15a.744.744 0 0 0-.008-1.032.717.717 0 0 0-1.016-.008l-7.015 7.15h-.001c-.37.398-.574.927-.569 1.475a2.13 2.13 0 0 0 .6 1.462c.38.39.893.614 1.431.624a2.05 2.05 0 0 0 1.45-.563l.008-.007.001-.002.007-.006.007-.007 9.82-10.008a3.516 3.516 0 0 0 1-2.462c0-.924-.36-1.81-1-2.463a3.386 3.386 0 0 0-2.418-1.02c-.907 0-1.777.367-2.418 1.02l.036.035-.036-.035L2.39 11.35a4.86 4.86 0 0 0-1.058 1.575 4.934 4.934 0 0 0-.024 3.745c.24.595.592 1.135 1.038 1.59a4.76 4.76 0 0 0 1.56 1.059 4.69 4.69 0 0 0 3.677-.025 4.765 4.765 0 0 0 1.547-1.079l6.91-7.041v-.002a.744.744 0 0 0-.017-1.022.718.718 0 0 0-1.006-.018Z"/></symbol><symbol xmlns="http://www.w3.org/2000/svg" id="calendar" fill="none" viewBox="0 0 20 20"><path stroke="currentColor" stroke-linecap="round" stroke-linejoin="round" stroke-width="1.5" d="M3 9.365h14M6.733 2.832v3.733m6.533-3.733v3.733M4.556 4.7h10.888c.86 0 1.556.776 1.556 1.733V15.1c0 .957-.697 1.733-1.556 1.733H4.555C3.696 16.832 3 16.056 3 15.1V6.432C3 5.475 3.696 4.7 4.555 4.7Z"/></symbol><symbol xmlns="http://www.w3.org/2000/svg" id="call-2" fill="none" viewBox="0 0 24 24"><g stroke="currentColor" stroke-linecap="round" stroke-linejoin="round" stroke-width="1.5" clip-path="url(#a)"><path d="M5 4h4l2 5-2.5 1.5a11 11 0 0 0 5 5L15 13l5 2v4a2 2 0 0 1-2 2A16 16 0 0 1 3 6a2 2 0 0 1 2-2Z"/><path id="Vector_2" d="M15 7a2 2 0 0 1 2 2"/><path id="Vector_3" d="M15 3a6 6 0 0 1 6 6"/></g></symbol><symbol xmlns="http://www.w3.org/2000/svg" id="call" fill="none" viewBox="0 0 24 24"><path fill="currentColor" d="M5.54 7.884C5.255 6 6.585 4.304 8.618 3.681a1.482 1.482 0 0 1 1.821.898l.652 1.74a1.5 1.5 0 0 1-.39 1.631L8.76 9.73a.752.752 0 0 0-.227.705l.017.078.048.195c.043.165.107.398.198.675.18.552.467 1.293.895 2.033.427.74.925 1.36 1.312 1.791.202.225.412.44.632.648l.06.056a.75.75 0 0 0 .723.153l2.51-.79a1.5 1.5 0 0 1 1.607.478l1.187 1.442a1.47 1.47 0 0 1-.132 2.012c-1.556 1.45-3.695 1.748-5.183.55a19.099 19.099 0 0 1-4.536-5.292 18.652 18.652 0 0 1-2.331-6.58Zm4.565 2.648 1.61-1.476a3 3 0 0 0 .78-3.263l-.652-1.74A2.982 2.982 0 0 0 8.18 2.247c-2.524.773-4.55 3.036-4.121 5.862a20.16 20.16 0 0 0 2.517 7.108 20.593 20.593 0 0 0 4.893 5.708c2.23 1.792 5.211 1.181 7.146-.623a2.971 2.971 0 0 0 .267-4.063l-1.187-1.441a3 3 0 0 0-3.217-.956l-2.082.656a9.4 9.4 0 0 1-1.404-1.833 9.414 9.414 0 0 1-.886-2.133Z"/></symbol><symbol xmlns="http://www.w3.org/2000/svg" id="chevron-down" fill="none" viewBox="0 0 20 20"><g clip-path="url(#a)"><path stroke="currentColor" stroke-linecap="round" stroke-linejoin="round" stroke-width="1.5" d="m15 8.333-5 5-5-5"/></g></symbol><symbol xmlns="http://www.w3.org/2000/svg" id="chevron-right" fill="none" viewBox="0 0 20 20"><g clip-path="url(#a)"><path stroke="currentColor" stroke-linecap="round" stroke-linejoin="round" stroke-width="1.5" d="m7.5 5 5 5-5 5"/></g></symbol><symbol xmlns="http://www.w3.org/2000/svg" id="document-icon" fill="none" viewBox="0 0 24 24"><path stroke="currentColor" stroke-linecap="round" stroke-linejoin="round" stroke-width="1.5" d="M14 3v4a1 1 0 0 0 1 1h4m-5-5H7a2 2 0 0 0-2 2v14a2 2 0 0 0 2 2h10a2 2 0 0 0 2-2V8m-5-5 5 5M9 9h1m-1 4h6m-6 4h6"/></symbol><symbol xmlns="http://www.w3.org/2000/svg" id="geo" fill="none" viewBox="0 0 24 24"><path fill="currentColor" d="M17.555 12.92c-.699 1.416-1.646 2.827-2.614 4.093A41.963 41.963 0 0 1 12 20.44a41.972 41.972 0 0 1-2.941-3.427c-.968-1.266-1.915-2.677-2.614-4.093C5.74 11.49 5.333 10.15 5.333 9a6.667 6.667 0 0 1 13.334 0c0 1.15-.407 2.49-1.112 3.92Zm-6.878 8.061a1.793 1.793 0 0 0 2.646 0C15.595 18.543 20 13.268 20 9A8 8 0 0 0 4 9c0 4.268 4.405 9.543 6.677 11.981Z"/><path fill="currentColor" d="M12 11.667a2.667 2.667 0 1 1 0-5.334 2.667 2.667 0 0 1 0 5.334ZM12 13a4 4 0 1 0 0-8 4 4 0 0 0 0 8Z"/></symbol><symbol xmlns="http://www.w3.org/2000/svg" id="info-icon-circle" fill="none" viewBox="0 0 20 20"><g id="Group 4059"><path id="Union" fill="currentColor" fill-rule="evenodd" d="M10 1.333a8.667 8.667 0 1 0 0 17.334 8.667 8.667 0 0 0 0-17.334ZM0 10C0 4.477 4.477 0 10 0s10 4.477 10 10-4.477 10-10 10S0 15.523 0 10Zm8.889-3.556c0-.613.497-1.11 1.11-1.11h.01a1.111 1.111 0 1 1 0 2.221H10a1.111 1.111 0 0 1-1.11-1.11Zm.223 2.89a.667.667 0 1 0 0 1.333h.222v2.889c0 .368.298.666.667.666h.889a.667.667 0 0 0 0-1.333h-.223V10a.667.667 0 0 0-.666-.667h-.89Z" clip-rule="evenodd"/></g></symbol><symbol xmlns="http://www.w3.org/2000/svg" id="mail" fill="none" viewBox="0 0 24 24"><path fill="currentColor" d="M21 4.5H3a.75.75 0 0 0-.75.75V18a1.5 1.5 0 0 0 1.5 1.5h16.5a1.5 1.5 0 0 0 1.5-1.5V5.25A.75.75 0 0 0 21 4.5ZM19.069 6 12 12.478 4.931 6H19.07Zm1.181 12H3.75V6.956l7.744 7.097a.75.75 0 0 0 1.012 0l7.744-7.097V18Z"/></symbol><symbol xmlns="http://www.w3.org/2000/svg" id="sort-with-arrow-down" fill="none" viewBox="0 0 20 20"><g stroke="currentColor" stroke-linecap="round" stroke-linejoin="round" stroke-width="1.3" clip-path="url(#a)"><path d="M3.332 5h7.5m-7.5 5h5.833m-5.833 5h5.833m3.335-2.5L15 15l2.5-2.5M15 5v10"/></g></symbol><symbol xmlns="http://www.w3.org/2000/svg" id="sort-with-arrow" fill="none" viewBox="0 0 20 20"><g stroke="currentColor" stroke-linecap="round" stroke-linejoin="round" stroke-width="1.3" clip-path="url(#a)"><path d="M3.332 5h5.833m-5.833 5h5.833m-5.833 5h7.5M12.5 7.5 15 5l2.5 2.5M15 5v10"/></g></symbol><symbol xmlns="http://www.w3.org/2000/svg" id="sort" fill="none" viewBox="0 0 21 21"><path fill="currentColor" d="M3 16v-1.833h6V16H3Zm0-4.583V9.583h12v1.834H3Zm0-4.584V5h18v1.833H3Z"/></symbol><symbol xmlns="http://www.w3.org/2000/svg" id="success-circle-colored" fill="none" viewBox="0 0 64 64"><g id="bulk/tick-circle"><path fill="#359D5F" d="M32 58.667c14.728 0 26.667-11.94 26.667-26.667 0-14.728-11.939-26.667-26.666-26.667C17.273 5.333 5.334 17.273 5.334 32c0 14.728 11.94 26.667 26.667 26.667Z"/><path fill="#fff" d="M28.214 41.547c-.534 0-1.04-.214-1.413-.587l-7.547-7.547a2.012 2.012 0 0 1 0-2.826 2.012 2.012 0 0 1 2.826 0l6.134 6.133L41.92 23.013a2.012 2.012 0 0 1 2.827 0 2.012 2.012 0 0 1 0 2.827l-15.12 15.12c-.373.373-.88.587-1.413.587Z"/></g></symbol><symbol xmlns="http://www.w3.org/2000/svg" id="www" fill="none" viewBox="0 0 24 24"><path fill="currentColor" d="M16.36 14c.08-.66.14-1.32.14-2 0-.68-.06-1.34-.14-2h3.38c.16.64.26 1.31.26 2s-.1 1.36-.26 2m-5.15 5.56c.6-1.11 1.06-2.31 1.38-3.56h2.95a8.03 8.03 0 0 1-4.33 3.56ZM14.34 14H9.66c-.1-.66-.16-1.32-.16-2 0-.68.06-1.35.16-2h4.68c.09.65.16 1.32.16 2 0 .68-.07 1.34-.16 2ZM12 19.96c-.83-1.2-1.5-2.53-1.91-3.96h3.82c-.41 1.43-1.08 2.76-1.91 3.96ZM8 8H5.08A7.923 7.923 0 0 1 9.4 4.44C8.8 5.55 8.35 6.75 8 8Zm-2.92 8H8c.35 1.25.8 2.45 1.4 3.56A8.008 8.008 0 0 1 5.08 16Zm-.82-2C4.1 13.36 4 12.69 4 12s.1-1.36.26-2h3.38c-.08.66-.14 1.32-.14 2 0 .68.06 1.34.14 2M12 4.03c.83 1.2 1.5 2.54 1.91 3.97h-3.82c.41-1.43 1.08-2.77 1.91-3.97ZM18.92 8h-2.95a15.65 15.65 0 0 0-1.38-3.56c1.84.63 3.37 1.9 4.33 3.56ZM12 2C6.47 2 2 6.5 2 12A10 10 0 1 0 12 2Z"/><path fill="currentColor" d="M16.36 10v-.2h-.226l.027.224.199-.024Zm3.38 0 .194-.049-.038-.151h-.156v.2Zm-5.15 9.56-.176-.095-.244.451.485-.167-.065-.189ZM15.97 16v-.2h-.155l-.039.15.194.05Zm2.95 0 .173.1.174-.3h-.347v.2Zm-4.58-2v.2h.175l.023-.173L14.34 14Zm-4.68 0-.198.03.026.17h.172V14Zm0-4v-.2h-.172l-.026.17.198.03Zm4.68 0 .198-.027-.024-.173h-.174v.2ZM12 19.96l-.165.114.165.238.165-.238L12 19.96ZM10.09 16v-.2h-.265l.073.255.192-.055Zm3.82 0 .192.055.073-.255h-.265v.2ZM8 8v.2h.152l.04-.146L8 8ZM5.08 8l-.174-.1-.171.3h.345V8ZM9.4 4.44l.176.095.243-.449-.483.165.064.189ZM5.08 16v-.2h-.347l.174.3.173-.1ZM8 16l.193-.054-.041-.146H8v.2Zm1.4 3.56-.065.19.485.166-.244-.451-.176.095ZM4.26 10v-.2h-.156l-.038.151.194.049Zm3.38 0 .199.024.027-.224H7.64v.2ZM12 4.03l.165-.114L12 3.678l-.165.238.165.114ZM13.91 8v.2h.265l-.073-.255L13.91 8Zm-3.82 0-.192-.055-.073.255h.265V8Zm8.83 0v.2h.347l-.174-.3-.173.1Zm-2.95 0-.194.049.038.151h.156V8Zm-1.38-3.56.065-.19-.482-.164.24.448.177-.094ZM12 2v-.2.2Zm0 20v.2-.2Zm4.558-7.976A16.7 16.7 0 0 0 16.7 12h-.4c0 .668-.059 1.32-.139 1.976l.397.048ZM16.7 12c0-.691-.061-1.36-.142-2.024l-.396.048c.079.657.138 1.308.138 1.976h.4Zm-.34-1.8h3.38v-.4h-3.38v.4Zm3.186-.151c.157.627.254 1.28.254 1.951h.4a8.44 8.44 0 0 0-.266-2.049l-.388.098ZM19.8 12c0 .67-.097 1.324-.254 1.951l.388.098A8.44 8.44 0 0 0 20.2 12h-.4Zm-5.034 7.655a15.852 15.852 0 0 0 1.398-3.605l-.388-.1a15.446 15.446 0 0 1-1.362 3.515l.352.19ZM15.97 16.2h2.95v-.4h-2.95v.4Zm2.777-.3a7.83 7.83 0 0 1-4.222 3.47l.13.38a8.23 8.23 0 0 0 4.438-3.65l-.346-.2Zm-4.407-2.1H9.66v.4h4.68v-.4Zm-4.482.17A13.069 13.069 0 0 1 9.7 12h-.4c0 .692.061 1.362.162 2.03l.396-.06ZM9.7 12c0-.668.059-1.328.158-1.97l-.396-.06A13.363 13.363 0 0 0 9.3 12h.4Zm-.04-1.8h4.68v-.4H9.66v.4Zm4.482-.173c.09.646.158 1.306.158 1.973h.4c0-.693-.071-1.373-.162-2.027l-.396.054ZM14.3 12c0 .667-.069 1.316-.158 1.973l.396.054c.09-.663.162-1.334.162-2.027h-.4Zm-2.136 7.846c-.819-1.184-1.479-2.495-1.882-3.901l-.384.11c.417 1.454 1.097 2.803 1.938 4.019l.329-.228ZM10.09 16.2h3.82v-.4h-3.82v.4Zm3.628-.255c-.403 1.406-1.063 2.716-1.883 3.901l.33.228c.84-1.216 1.52-2.565 1.937-4.019l-.384-.11ZM8 7.8H5.08v.4H8v-.4Zm-2.746.3a7.723 7.723 0 0 1 4.21-3.47l-.128-.38a8.123 8.123 0 0 0-4.43 3.65l.348.2Zm3.97-3.755C8.615 5.47 8.16 6.685 7.807 7.946l.386.108c.347-1.24.792-2.425 1.383-3.519l-.352-.19ZM5.08 16.2H8v-.4H5.08v.4Zm2.727-.146c.353 1.26.808 2.475 1.417 3.601l.352-.19c-.591-1.094-1.036-2.28-1.383-3.519l-.386.108Zm1.658 3.317A7.808 7.808 0 0 1 5.253 15.9l-.346.2a8.209 8.209 0 0 0 4.428 3.65l.13-.38Zm-5.011-5.42A8.043 8.043 0 0 1 4.2 12h-.4c0 .71.103 1.396.266 2.049l.388-.098ZM4.2 12c0-.67.097-1.324.254-1.951l-.388-.098A8.441 8.441 0 0 0 3.8 12h.4Zm.06-1.8h3.38v-.4H4.26v.4Zm3.181-.224c-.08.663-.141 1.332-.141 2.024h.4c0-.668.059-1.32.139-1.976l-.398-.048ZM7.3 12c0 .691.061 1.36.141 2.024l.398-.048A16.317 16.317 0 0 1 7.7 12h-.4Zm4.535-7.856c.82 1.184 1.48 2.505 1.883 3.911l.384-.11c-.417-1.454-1.097-2.813-1.938-4.029l-.329.228ZM13.91 7.8h-3.82v.4h3.82v-.4Zm-3.628.255c.403-1.406 1.063-2.727 1.883-3.911l-.33-.228c-.84 1.216-1.52 2.575-1.937 4.029l.384.11ZM18.92 7.8h-2.95v.4h2.95v-.4Zm-2.756.151a15.85 15.85 0 0 0-1.398-3.605l-.352.188a15.45 15.45 0 0 1 1.362 3.515l.388-.098Zm-1.639-3.322A7.787 7.787 0 0 1 18.747 8.1l.346-.2a8.187 8.187 0 0 0-4.438-3.65l-.13.38ZM12 1.8C6.36 1.8 1.8 6.39 1.8 12h.4c0-5.39 4.38-9.8 9.8-9.8v-.4ZM1.8 12a10.2 10.2 0 0 0 2.988 7.212l.282-.282A9.8 9.8 0 0 1 2.2 12h-.4Zm2.988 7.212a10.201 10.201 0 0 0 3.309 2.212l.153-.37a9.799 9.799 0 0 1-3.18-2.124l-.282.282Zm3.309 2.212A10.2 10.2 0 0 0 12 22.2v-.4a9.8 9.8 0 0 1-3.75-.746l-.153.37ZM12 22.2a10.2 10.2 0 0 0 7.212-2.988l-.282-.282A9.8 9.8 0 0 1 12 21.8v.4Zm7.212-2.988A10.2 10.2 0 0 0 22.2 12h-.4a9.8 9.8 0 0 1-2.87 6.93l.282.282ZM22.2 12a10.2 10.2 0 0 0-.776-3.903l-.37.153A9.8 9.8 0 0 1 21.8 12h.4Zm-.776-3.903a10.201 10.201 0 0 0-2.212-3.31l-.282.283a9.8 9.8 0 0 1 2.124 3.18l.37-.153Zm-2.212-3.31a10.2 10.2 0 0 0-3.309-2.21l-.153.369a9.8 9.8 0 0 1 3.18 2.124l.282-.282Zm-3.309-2.21A10.2 10.2 0 0 0 12 1.8v.4a9.8 9.8 0 0 1 3.75.746l.153-.37Z" mask="url(#a)"/></symbol><symbol xmlns="http://www.w3.org/2000/svg" id="x-circle-outline" fill="none" viewBox="0 0 24 24"><g id="Icon/24px/error" stroke="currentColor" stroke-linecap="round" stroke-linejoin="round" clip-path="url(#a)"><path stroke-width="1.5" d="M12 21a9 9 0 1 0 0-18 9 9 0 0 0 0 18Z"/><path stroke-width="1.4" d="m9.877 9.879 4.243 4.242m-4.243 0 4.243-4.243"/></g></symbol><symbol xmlns="http://www.w3.org/2000/svg" id="x-icon" fill="none" viewBox="0 0 32 32"><path fill="currentColor" stroke="currentColor" d="M6.136 24.803a.75.75 0 1 0 1.06 1.06l-1.06-1.06ZM25.863 7.197a.75.75 0 0 0-1.06-1.06l1.06 1.06ZM7.196 6.137a.75.75 0 1 0-1.06 1.06l1.06-1.06Zm17.606 19.727a.75.75 0 1 0 1.061-1.06l-1.06 1.06Zm-17.606 0 9.334-9.334-1.061-1.06-9.333 9.333 1.06 1.06Zm9.334-9.334 9.333-9.333-1.06-1.06-9.334 9.333 1.06 1.06Zm0-1.06L7.196 6.136l-1.06 1.061 9.333 9.333 1.06-1.06ZM6.136 7.197l18.666 18.667 1.061-1.06L7.196 6.135l-1.06 1.061Z"/></symbol></svg>