<?xml version="1.0"?>
<svg width="18" height="18" xmlns="http://www.w3.org/2000/svg" xmlns:svg="http://www.w3.org/2000/svg" preserveAspectRatio="xMidYMid meet" version="1.0">
 <g class="layer" display="inline">
  <title>Layer 1</title>
  <g fill="#000000" id="svg_1" transform="translate(0.0346478 1.65441) scale(1 1) translate(-0.0346478 -1.65441) translate(0.0369213 1.65348) matrix(0.00171225 0 0 -0.00193061 -0.416793 18.206)">
   <path d="m649,9316.18c5.9,-81.19 57,-267.05 81.57,-299.33c8.84,-11.74 60.93,-73.36 116.94,-136.95c55.03,-63.58 156.25,-186.84 224.06,-274.87c112.03,-145.75 127.75,-162.38 181.8,-189.77c58.96,-29.35 87.46,-66.52 87.46,-113.47c0,-9.78 35.38,-64.56 78.62,-123.25c43.24,-57.71 120.87,-176.08 172.96,-264.11c52.08,-87.06 142.49,-230.85 201.46,-319.87c128.74,-197.6 153.3,-245.53 158.22,-308.13l2.95,-48.91l-57.98,-2.93c-52.08,-2.93 -62.89,0 -109.08,31.3c-84.51,55.76 -224.06,175.1 -286.95,246.51c-173.94,194.66 -313.49,372.69 -392.1,495.95c-48.15,76.3 -114,171.18 -147.41,212.27c-82.55,101.73 -84.51,105.65 -150.36,263.14c-63.88,151.62 -75.67,169.23 -130.7,197.6l-37.34,18.59l-24.57,-39.13c-67.81,-106.62 -68.79,-109.56 -51.1,-268.03l14.74,-143.8l86.48,-138.9c119.89,-194.66 147.41,-236.72 209.32,-319.87c53.07,-71.41 212.27,-355.09 223.08,-397.15c3.93,-14.67 25.55,-29.35 72.72,-47.93c57.98,-23.48 71.74,-25.43 99.25,-15.65c46.19,15.65 51.1,13.69 70.76,-24.45c23.59,-47.93 21.62,-51.84 -21.62,-45.98c-26.53,3.91 -45.2,0 -63.88,-11.74c-29.48,-19.56 -25.55,-21.52 -121.86,68.47l-41.27,39.13l-114.98,0.98c-112.03,0.98 -114,0 -159.2,-30.32c-24.57,-17.61 -64.86,-59.67 -89.43,-93.91c-24.57,-35.22 -67.81,-86.08 -97.29,-112.49c-48.15,-45 -54.05,-55.76 -60.93,-102.71c-11.79,-83.15 -9.83,-206.4 3.93,-233.79c15.72,-30.32 52.08,-36.19 111.05,-15.65l44.22,14.67l-49.14,-60.65l-49.14,-61.63l29.48,-57.71c32.43,-68.47 38.33,-148.69 13.76,-208.36c-8.84,-19.56 -50.12,-71.41 -92.38,-114.45c-42.26,-43.04 -81.57,-88.04 -88.44,-100.75c-9.83,-18.59 -3.93,-46.95 38.33,-185.86c41.27,-134.01 54.05,-196.62 73.7,-349.22c40.29,-323.78 40.29,-314.98 9.83,-406.93c-36.36,-107.6 -69.77,-182.92 -99.25,-221.07c-32.43,-43.04 -69.77,-151.62 -76.65,-227.92c-8.84,-89.02 -19.65,-117.38 -88.44,-228.9c-57,-94.89 -59.95,-101.73 -62.89,-173.14l-3.93,-75.32l37.34,-25.43c20.64,-13.69 47.17,-25.43 58.96,-25.43c29.48,0 62.89,-28.37 131.68,-113.47c96.31,-120.32 94.34,-103.69 37.34,-268.03c-71.74,-209.33 -82.55,-351.17 -27.52,-359c7.86,-0.98 40.29,-4.89 70.76,-7.83c101.22,-10.76 136.6,-74.34 112.03,-201.51c-6.88,-39.13 -11.79,-77.28 -8.84,-84.13c13.76,-36.19 92.38,14.67 135.61,89.02c26.53,45 26.53,45.98 -24.57,224.99c-20.64,74.34 -20.64,78.26 -3.93,114.45c8.84,21.52 21.62,38.15 27.52,38.15c5.9,0 21.62,-15.65 34.4,-34.24c17.69,-26.41 25.55,-54.78 30.46,-114.45l6.88,-80.21l56.01,-51.84c69.77,-64.56 70.76,-84.13 6.88,-105.65c-26.53,-8.8 -53.07,-20.54 -57.98,-27.39c-5.9,-6.85 -38.33,-66.52 -73.7,-134.01c-59.95,-116.41 -63.88,-126.19 -69.77,-213.25c-5.9,-76.3 -10.81,-91.95 -27.52,-100.75c-13.76,-7.83 -27.52,-6.85 -48.15,0.98c-35.38,14.67 -46.19,49.89 -24.57,80.21c24.57,34.24 18.67,51.84 -28.5,89.99c-24.57,20.54 -44.22,45 -44.22,54.78c0,33.26 -50.12,38.15 -138.56,13.69c-31.45,-8.8 -66.82,-24.45 -78.62,-36.19c-19.65,-18.59 -20.64,-25.43 -14.74,-98.8c2.95,-44.02 8.84,-95.86 12.78,-117.38l5.9,-38.15l59.95,8.8c33.41,3.91 91.39,7.83 128.74,7.83c65.84,0 72.72,-2.93 157.23,-51.84c144.46,-85.1 159.2,-89.02 338.05,-89.02l155.27,0l31.45,30.32c19.65,17.61 37.34,27.39 48.15,24.45c8.84,-2.93 76.65,-18.59 149.37,-35.22l132.67,-29.35l447.14,0c245.68,0 462.86,0 481.53,0.98c57,2.93 81.57,1.96 133.65,-5.87c48.15,-6.85 53.07,-5.87 109.08,34.24l58.96,41.08l50.12,-15.65c34.4,-9.78 53.07,-10.76 57,-3.91c3.93,5.87 21.62,7.83 41.27,3.91c19.65,-2.93 78.62,3.91 134.63,14.67l100.24,20.54l68.79,-35.22c37.34,-19.56 74.69,-35.22 82.55,-35.22c7.86,0 36.36,13.69 63.88,30.32c58.96,38.15 93.36,49.89 249.61,86.08c67.81,16.63 160.18,41.08 206.37,54.78c79.6,24.45 87.46,25.43 174.92,15.65c62.89,-7.83 108.1,-19.56 141.51,-36.19c28.5,-14.67 114.98,-40.11 193.6,-57.71c131.68,-28.37 163.13,-32.28 379.33,-38.15c191.63,-5.87 264.35,-3.91 388.17,9.78c123.82,13.69 208.34,15.65 456.96,10.76c284.99,-4.89 334.12,-2.93 746.86,28.37c243.71,18.59 468.76,35.22 501.19,38.15c341.99,29.35 1616.57,122.27 1679.46,122.27c64.86,0 116.94,-8.8 235.85,-39.13c83.53,-21.52 171.98,-39.13 197.53,-39.13c41.27,0 46.19,-2.93 57.98,-29.35l11.79,-29.35l23.59,24.45c29.48,31.3 46.19,31.3 70.76,0c35.38,-45 82.55,-30.32 162.15,48.91c63.88,64.56 297.76,271.94 331.18,294.44c16.71,10.76 50.12,33.26 74.69,48.91c23.59,15.65 69.77,52.82 103.19,83.15c32.43,30.32 75.67,62.6 96.31,72.39c22.6,10.76 80.58,63.58 142.49,131.08c57.98,62.6 145.44,154.56 194.58,204.44l88.44,89.99l-87.46,0c-84.51,0 -87.46,0.98 -117.93,31.3c-46.19,45.98 -17.69,45.98 145.44,0.98c39.31,-10.76 -6.88,23.48 -83.53,60.65c-40.29,19.56 -80.58,39.13 -88.44,44.02c-7.86,3.91 -15.72,18.59 -17.69,32.28c-3.93,33.26 24.57,41.08 109.08,31.3c98.27,-10.76 137.58,-9.78 168.04,4.89c54.05,26.41 45.2,40.11 -34.4,52.82c-18.67,3.91 -44.22,14.67 -55.03,24.45c-18.67,17.61 -54.05,19.56 -736.05,29.35c-394.07,5.87 -796.98,13.69 -895.25,16.63c-192.61,6.85 -202.44,10.76 -157.23,53.8c19.65,18.59 29.48,19.56 90.41,14.67c59.95,-4.89 75.67,-2.93 117.93,17.61l49.14,23.48l-29.48,10.76c-21.62,8.8 -150.36,9.78 -540.49,0.98c-1118.33,-22.5 -1450.49,-29.35 -1819.99,-35.22l-385.22,-6.85l-64.86,62.6l-65.84,63.58l-4.91,79.23l-5.9,80.21l-79.6,26.41c-78.62,26.41 -137.58,58.69 -200.47,113.47c-17.69,14.67 -40.29,27.39 -51.1,27.39c-34.4,0 -52.08,65.54 -26.53,98.8c6.88,7.83 23.59,23.48 39.31,32.28c14.74,9.78 26.53,26.41 26.53,37.17c0,32.28 18.67,56.74 44.22,56.74c27.52,0 66.82,34.24 60.93,51.84c-1.97,6.85 -12.78,12.72 -24.57,14.67c-26.53,3.91 -26.53,4.89 -0.98,58.69c18.67,38.15 19.65,46.95 8.84,79.23c-16.71,51.84 -9.83,73.36 24.57,79.23c41.27,6.85 32.43,22.5 -21.62,35.22c-86.48,20.54 -105.15,38.15 -71.74,67.5c20.64,18.59 39.31,19.56 287.94,9.78c159.2,-6.85 165.1,-7.83 183.77,-31.3c9.83,-12.72 38.33,-38.15 61.91,-56.74l42.26,-32.28l-3.93,26.41l-3.93,27.39l185.73,0.98c101.22,0.98 265.33,-0.98 363.61,-3.91l178.85,-5.87l26.53,-44.02l25.55,-44.02l286.95,5.87c157.23,2.93 529.68,10.76 826.46,16.63c297.76,5.87 608.3,13.69 691.83,16.63l150.36,6.85l11.79,33.26c11.79,37.17 27.52,45 115.96,54.78c79.6,8.8 106.13,32.28 106.13,92.93c0,41.08 -3.93,50.87 -40.29,86.08c-31.45,31.3 -51.1,42.06 -95.32,50.87c-30.46,5.87 -84.51,20.54 -119.89,31.3c-57.98,17.61 -97.29,20.54 -442.22,24.45c-208.34,1.96 -642.7,0 -966.01,-4.89c-323.31,-4.89 -606.34,-5.87 -628.94,-0.98c-56.01,9.78 -105.15,64.56 -105.15,118.36c0,39.13 7.86,44.02 42.26,25.43c13.76,-6.85 82.55,-11.74 178.85,-13.69c86.48,-0.98 447.14,-11.74 800.91,-23.48c729.18,-23.48 1119.31,-28.37 1199.9,-15.65c50.12,7.83 55.03,6.85 59.95,-10.76c4.91,-17.61 19.65,-20.54 144.46,-32.28l139.55,-12.72l47.17,50.87c47.17,50.87 56.01,54.78 98.27,43.04c22.6,-5.87 22.6,-6.85 15.72,-99.78c-2.95,-50.87 -11.79,-106.62 -19.65,-123.25c-13.76,-35.22 -64.86,-63.58 -112.03,-63.58c-21.62,0 -34.4,-6.85 -46.19,-24.45c-14.74,-22.5 -14.74,-26.41 0,-47.93c7.86,-13.69 23.59,-26.41 34.4,-30.32c10.81,-2.93 36.36,-35.22 56.01,-71.41c27.52,-51.84 43.24,-69.45 73.7,-83.15c55.03,-26.41 76.65,-16.63 115.96,48.91c21.62,35.22 86.48,107.6 172.96,190.75c76.65,74.34 147.41,150.64 158.22,171.18c27.52,53.8 104.17,168.25 198.51,295.42c45.2,60.65 88.44,125.21 96.31,142.82c14.74,37.17 22.6,40.11 112.03,48.91c97.29,9.78 298.75,44.02 307.59,52.82c3.93,3.91 -15.72,24.45 -43.24,45.98c-28.5,20.54 -53.07,43.04 -55.03,48.91c-3.93,11.74 11.79,19.56 149.37,83.15c60.93,27.39 65.84,31.3 45.2,37.17l-24.57,6.85l32.43,20.54l32.43,19.56l-52.08,5.87c-29.48,2.93 -114.98,5.87 -190.65,5.87c-75.67,0.98 -150.36,4.89 -167.06,8.8l-28.5,7.83l20.64,20.54c10.81,10.76 57,35.22 101.22,52.82l81.57,33.26l-48.15,2.93c-74.69,3.91 -83.53,11.74 -33.41,30.32c41.27,15.65 44.22,18.59 47.17,56.74c2.95,40.11 3.93,41.08 47.17,47.93c63.88,8.8 53.07,23.48 -17.69,23.48c-75.67,0.98 -144.46,15.65 -167.06,36.19c-23.59,21.52 -23.59,83.15 0,103.69c14.74,12.72 38.33,16.63 111.05,16.63c51.1,0 98.27,3.91 105.15,8.8c17.69,10.76 -82.55,30.32 -159.2,30.32c-51.1,0 -64.86,4.89 -94.34,28.37c-18.67,15.65 -32.43,31.3 -29.48,33.26c2.95,2.93 54.05,29.35 114.98,59.67l109.08,53.8l12.78,54.78c6.88,29.35 8.84,56.74 5.9,60.65c-8.84,7.83 -90.41,21.52 -141.51,21.52c-28.5,0.98 -49.14,7.83 -68.79,24.45c-14.74,12.72 -25.55,26.41 -22.6,28.37c5.9,5.87 184.75,85.1 209.32,91.95c36.36,11.74 12.78,20.54 -72.72,27.39c-122.84,8.8 -135.61,17.61 -48.15,29.35l73.7,9.78l-69.77,13.69c-58.96,11.74 -72.72,17.61 -86.48,40.11c-20.64,36.19 -20.64,36.19 12.78,52.82c15.72,8.8 39.31,34.24 54.05,58.69c13.76,23.48 37.34,56.74 51.1,73.36c22.6,27.39 31.45,30.32 80.58,31.3l56.01,0.98l-44.22,14.67c-67.81,23.48 -85.5,41.08 -131.68,125.21c-23.59,43.04 -53.07,85.1 -65.84,94.89c-12.78,8.8 -92.38,31.3 -175.91,48.91l-152.32,32.28l-390.14,0c-363.61,0 -391.12,-0.98 -402.91,-17.61c-19.65,-26.41 -103.19,-33.26 -469.74,-40.11c-443.21,-8.8 -566.04,-18.59 -648.59,-53.8c-56.01,-24.45 -83.53,-29.35 -230.94,-39.13c-364.59,-24.45 -688.88,-32.28 -1376.79,-31.3c-684.95,0 -722.3,0.98 -805.83,19.56c-48.15,11.74 -96.31,22.5 -107.12,26.41c-10.81,2.93 -35.38,27.39 -54.05,55.76c-18.67,27.39 -71.74,88.04 -117.93,134.99c-67.81,69.45 -93.36,88.04 -135.61,101.73c-28.5,8.8 -54.05,14.67 -57,11.74c-1.97,-1.96 0,-16.63 5.9,-31.3c5.9,-14.67 8.84,-28.37 6.88,-30.32c-2.95,-2.93 -52.08,53.8 -165.1,190.75c-28.5,35.22 -54.05,57.71 -56.01,51.84c-3.93,-11.74 32.43,-77.28 156.25,-285.63c41.27,-69.45 69.77,-129.12 73.7,-155.53l6.88,-42.06l-43.24,6.85c-64.86,10.76 -101.22,28.37 -149.37,72.39c-23.59,22.5 -47.17,40.11 -52.08,40.11c-3.93,0 -21.62,-12.72 -38.33,-28.37l-29.48,-28.37l-83.53,14.67c-46.19,7.83 -114,27.39 -152.32,44.02c-64.86,28.37 -72.72,29.35 -162.15,24.45c-102.2,-6.85 -220.13,2.93 -235.85,18.59c-6.88,6.85 -6.88,26.41 0.98,60.65c14.74,72.39 7.86,78.26 -28.5,26.41c-23.59,-33.26 -36.36,-44.02 -48.15,-40.11c-8.84,3.91 -57,9.78 -107.12,12.72l-91.39,5.87l-22.6,42.06c-19.65,38.15 -27.52,44.02 -71.74,52.82c-48.15,9.78 -53.07,14.67 -127.75,109.56c-76.65,97.82 -78.62,101.73 -78.62,155.53c-0.98,49.89 -5.9,62.6 -52.08,133.03c-28.5,42.06 -51.1,88.04 -51.1,99.78c0,34.24 -38.33,94.89 -81.57,129.12l-39.31,31.3l8.84,-38.15c3.93,-20.54 7.86,-106.62 8.84,-189.77c0.98,-139.88 2.95,-156.51 26.53,-210.31c13.76,-32.28 34.4,-103.69 46.19,-158.47c10.81,-54.78 26.53,-115.43 35.38,-135.97c23.59,-55.76 20.64,-62.6 -29.48,-62.6c-24.57,0 -58.96,5.87 -76.65,13.69c-46.19,18.59 -483.5,320.85 -683.97,471.49c-133.65,101.73 -192.61,153.58 -276.14,246.51c-69.77,75.32 -150.36,150.64 -232.9,215.2c-68.79,53.8 -200.47,161.4 -292.85,239.66c-91.39,77.28 -168.04,139.88 -170.01,138.9c-1.97,-1.96 15.72,-37.17 38.33,-80.21c43.24,-78.26 150.36,-224.01 226.02,-310.09c37.34,-42.06 45.2,-46.95 74.69,-42.06l32.43,5.87l0,-53.8c0,-61.63 37.34,-143.8 123.82,-272.92c47.17,-70.43 56.01,-91.95 82.55,-204.44c33.41,-139.88 94.34,-294.44 161.17,-406.93c23.59,-40.11 41.27,-75.32 39.31,-77.28c-1.97,-1.96 -35.38,7.83 -74.69,21.52c-39.31,13.69 -104.17,34.24 -143.48,45.98c-67.81,19.56 -96.31,37.17 -115.96,71.41c-4.91,7.83 -55.03,34.24 -112.03,57.71c-77.63,33.26 -145.44,73.36 -273.2,162.38c-93.36,65.54 -171.98,119.34 -175.91,119.34c-2.95,0 -36.36,8.8 -72.72,19.56c-65.84,19.56 -67.81,21.52 -67.81,52.82c0,16.63 -5.9,38.15 -11.79,46.95c-6.88,7.83 -83.53,78.26 -170.01,155.53c-318.4,282.7 -430.43,398.13 -486.44,497.9c-23.59,42.06 -51.1,73.36 -85.5,99.78c-47.17,34.24 -52.08,41.08 -52.08,76.3c0,29.35 -6.88,46.95 -29.48,70.43l-29.48,32.28l5.9,-73.36zm2812.53,-2731.13c38.33,-11.74 51.1,-33.26 51.1,-84.13c0,-35.22 -4.91,-43.04 -40.29,-69.45c-22.6,-15.65 -54.05,-32.28 -70.76,-36.19c-16.71,-2.93 -59.95,-26.41 -97.29,-50.87c-61.91,-41.08 -67.81,-43.04 -96.31,-31.3c-33.41,13.69 -88.44,71.41 -88.44,92.93c0,7.83 19.65,36.19 43.24,62.6c23.59,26.41 46.19,62.6 50.12,79.23c7.86,34.24 13.76,38.15 86.48,48.91c55.03,7.83 111.05,3.91 162.15,-11.74z" id="svg_2"/>
  </g>
 </g>
</svg>