<?xml version="1.0"?>
<svg width="56" height="56" xmlns="http://www.w3.org/2000/svg" xmlns:svg="http://www.w3.org/2000/svg" version="1.1">
 <title>MacBook Pro</title>
 <desc>Created with Sketch.</desc>
 <g class="layer" display="inline">
  <title>Layer 1</title>
  <g fill="none" fill-rule="evenodd" id="Page-1" transform="translate(3 2) matrix(0.88941 0 0 0.928531 1.88596 0.427645)">
   <g fill="#000000" id="Apple-Icons" transform="translate(-1.03127 47.9595) scale(1 1) translate(1.03127 -47.9595) translate(-0.978774 6.05037) matrix(0.408238 0 0 0.526001 -217.868 -130.567)">
    <g id="128px" transform="translate(120.000000, 224.000000)">
     <path d="m527,89c0,1.1 -0.9,2 -2,2l-90,0c-1.1,0 -2,-0.9 -2,-2l0,-56c0,-1.1 0.9,-2 2,-2l90,0c1.1,0 2,0.9 2,2l0,56zm-2,-59l-90,0c-1.66,0 -3,1.34 -3,3l0,56c0,1.66 1.34,3 3,3l90,0c1.66,0 3,-1.34 3,-3l0,-56c0,-1.66 -1.34,-3 -3,-3l0,0zm17,68c0,1.1 -0.9,2 -2,2l-120,0c-1.1,0 -2,-0.9 -2,-2l0,-2l10,0l44,0c0,1.1 0.9,2 2,2l12,0c1.1,0 2,-0.9 2,-2l44,0l10,0l0,2zm-112,-66c0,-2.21 1.79,-4 4,-4l92,0c2.21,0 4,1.79 4,4l0,62l-100,0l0,-62zm102,62l0,-62c0,-3.3 -2.7,-6 -6,-6l-92,0c-3.3,0 -6,2.7 -6,6l0,62l-12,0l0,4c0,2.2 1.8,4 4,4l120,0c2.2,0 4,-1.8 4,-4l0,-4l-12,0z" fill="#ffffff" id="MacBook-Pro"/>
    </g>
   </g>
  </g>
 </g>
</svg>