<?xml version="1.0"?>
<svg width="56" height="56" xmlns="http://www.w3.org/2000/svg" xmlns:svg="http://www.w3.org/2000/svg" version="1.1">
 <metadata id="metadata7">image/svg+xml</metadata>
 <g class="layer" display="inline">
  <title>Layer 1</title>
  <g id="layer1" transform="translate(-69.981 -160.333)">
   <g id="g3699" transform="translate(-2 1) matrix(0.152054 0 0 0.12979 60.6846 142.939)">
    <path d="m260.51,170.7l-154.53,170.09l153.88,169.39l154.53,-170.1l-153.88,-169.38z" fill="#019833" id="path2836" stroke="#000000" stroke-width="0.95px"/>
    <path d="m259.86,171.4l0,-14.88l-168.04,184.98l14.16,0l153.88,-170.1z" fill="#66fe98" id="path2838" stroke="#000000" stroke-width="0.95px"/>
    <path d="m259.48,171.4l0,-14.88l168.04,184.98l-14.16,0l-153.88,-170.1z" fill="#45fe02" id="path2840" stroke="#000000" stroke-width="0.95px"/>
    <path d="m259.86,511.17l0,14.88l-168.04,-184.98l14.16,0l153.88,170.1z" fill="#017d17" id="path2842" stroke="#000000" stroke-width="0.95px"/>
    <path d="m122.99,175.31l108.36,0l6.6,7.26l0,22.3l-5.24,7.02l-11.83,0l0,110.75l101.98,-110.75l-16.85,0l-5.92,-7.02l0,-23.55l5.47,-5.51l109.72,0l5.46,6.01l0,22.05l-248.12,280.14l-28.23,0l-8.17,-5.19l0,-267.93l-13.68,0l-5.01,-5.51l0,-23.56l5.46,-6.51z" fill="none" id="path3650" stroke="#000000" stroke-miterlimit="4" stroke-width="18.91"/>
    <path d="m259.48,511.17l0,14.88l168.04,-184.98l-14.16,0l-153.88,170.1z" fill="#005d04" id="path2844" stroke="#000000" stroke-width="0.95px"/>
    <path d="m259.41,155.15l-168.68,185.67l167.98,184.9l168.67,-185.67l-167.97,-184.9z" fill="none" id="path2846" stroke="#000000" stroke-miterlimit="4" stroke-width="5.67"/>
    <path d="m232.5,186.64l6.12,-3.54l-6.28,-6.91l-109.29,0l-5.56,6.11l0,23.12l6.16,6.78l2.94,-6.78l-3.87,-4.25l0,-16.3l2.9,-2.84l104.3,0l2.58,4.61z" fill="#fefefe" id="path3640" stroke="#000000" stroke-width="0.95px"/>
    <path d="m828.94,369.5l-4.28,4.28l0,15.72l3.75,3.75l19.81,0l0,15.19l-131.06,132.84l0,-147.84l21.78,0l4.47,-4.47l0,-15.91l-4.13,-3.18l-114.62,0l-3.75,3.75l0,16.25l3.81,3.81l19.94,0l0,272.25l3.75,3.75l22.65,0l274.66,-283.41l0,-12.5l-4.28,-4.28l-112.5,0z" fill="none" id="path3632" stroke="#000000" stroke-width="1px" transform="matrix(0.90138601,0,0,0.99222542,-437.42287,-185.30615)"/>
    <path d="m143.48,204.87l0,270.62l3.19,4.01l-2.5,5.25l-7.06,-7.75l0,-265.11l6.37,-7.02z" fill="#fefefe" id="path3646" stroke="#000000" stroke-width="0.95px"/>
    <path d="m125.82,204.87l-1.82,6.52l13.21,0l7.28,-6.52l-18.67,0z" fill="#808080" id="path3644" stroke="#000000" stroke-width="0.95px"/>
    <path d="m307.19,212.19l2.89,-6.55l-4.18,-4.26l0,-14.53l4.83,-5.31l100.76,0l3.86,5.67l5.48,-4.25l-5.64,-6.21l-108.33,0l-5.39,5.94l0,23.3l5.6,5.8m-87.55,111.88l-10.52,28.11l118.79,-131.12l0,-15.59l-108.27,118.6z" fill="#fefefe" id="path3638" stroke="#000000" stroke-width="0.95px"/>
    <path d="m232.26,185.83l5.23,-3.76l0,22.8l-6.03,6.64l-11.72,0l0,112.39l-10.7,27.81l0,-146.84l19.58,0l3.64,-3.25l0,-15.79z" fill="#808080" id="path3642" stroke="#000000" stroke-width="0.95px"/>
    <path d="m828.94,369.5l-4.28,4.28l0,15.72l3.75,3.75l19.81,0l0,15.19l-131.06,132.84l0,-147.84l21.78,0l4.47,-4.47l0,-15.91l-4.13,-3.18l-114.62,0l-3.75,3.75l0,16.25l3.81,3.81l19.94,0l0,272.25l3.75,3.75l22.65,0l274.66,-283.41l0,-12.5l-4.28,-4.28l-112.5,0z" fill="#cccccc" id="path3622" stroke="#000000" stroke-width="1px" transform="matrix(0.90138601,0,0,0.99222542,-437.42287,-185.30615)"/>
    <path d="m415.35,185.93l5.5,-3.49l0,21.92l-249.39,280.52l-26.48,0l2.53,-5.53l20.28,0l247.24,-281.01l0.32,-12.41z" fill="#808080" id="path3636" stroke="#000000" stroke-width="0.95px"/>
    <path d="m327.3,205.25l-5.58,6.39l-14.57,0l3.42,-6.39c0.11,0 16.73,0 16.73,0z" fill="#808080" id="path3652" stroke="#000000" stroke-width="0.95px"/>
    <g id="g3673" transform="matrix(0.90138601,0,0,0.99222542,-92.530288,-192.23791)">
     <path d="m399.78,560a1.23,1.23 0 0 0 -0.56,0.28l-5.31,4.56a1.23,1.23 0 0 0 -0.35,0.54l-5.31,14.87a1.23,1.23 0 0 0 0.28,1.28l4.06,4.06a1.23,1.23 0 0 0 0.88,0.35l16.41,0a1.23,1.23 0 0 0 0.87,-0.35l4.28,-4.31a1.23,1.23 0 0 0 0.31,-0.53l4.57,-15.66a1.23,1.23 0 0 0 -0.32,-1.21l-3.53,-3.54a1.23,1.23 0 0 0 -0.87,-0.34l-15.16,0a1.23,1.23 0 0 0 -0.25,0zm-30.06,41.94a1.23,1.23 0 0 0 -0.94,0.9l-2.03,8.07a1.23,1.23 0 0 0 1.19,1.53l9.65,0l-23.93,68.34a1.23,1.23 0 0 0 1.15,1.63l34.85,0a1.23,1.23 0 0 0 1.18,-0.85l2.29,-7.34a1.23,1.23 0 0 0 -1.19,-1.59l-7.88,0l23.69,-69.07a1.23,1.23 0 0 0 -1.16,-1.62l-36.62,0a1.23,1.23 0 0 0 -0.25,0zm110.87,0.25a1.23,1.23 0 0 0 -0.68,0.4l-7.25,8.19l-11.53,0l-7.69,-7.97a1.23,1.23 0 0 0 -0.88,-0.37l-27.53,0a1.23,1.23 0 0 0 -1.15,0.81l-2.54,7.56a1.23,1.23 0 0 0 1.16,1.63l7.38,0l-22.94,67.59a1.23,1.23 0 0 0 1.15,1.63l29.32,0a1.23,1.23 0 0 0 1.15,-0.82l2.25,-6.59a1.23,1.23 0 0 0 -1.15,-1.62l-5.13,0l14.63,-46.04l26.47,0l-16.69,53.47a1.23,1.23 0 0 0 1.19,1.6l28.28,0a1.23,1.23 0 0 0 1.12,-0.75l2.53,-6.07a1.23,1.23 0 0 0 -1.12,-1.68l-5.13,0l14.88,-46.82l25.19,0l-16.94,53.72a1.23,1.23 0 0 0 1.19,1.6l31.06,0a1.23,1.23 0 0 0 1.15,-0.78l2.54,-6.6a1.23,1.23 0 0 0 -1.16,-1.65l-6.16,0l18.72,-60.79a1.23,1.23 0 0 0 -0.19,-1.12l-5.81,-7.81a1.23,1.23 0 0 0 -1,-0.47l-22.22,0a1.23,1.23 0 0 0 -0.9,0.37l-7,7.69l-12.25,0l-7.25,-7.94a1.23,1.23 0 0 0 -0.91,-0.37l-17.91,0a1.23,1.23 0 0 0 -0.25,0z" fill="#cccccc" id="path3671" stroke="#000000" stroke-miterlimit="10" stroke-width="8"/>
     <path d="m400.03,561.22l-5.31,4.56l-5.31,14.88l4.06,4.06l16.41,0l4.28,-4.31l4.56,-15.66l-3.53,-3.53l-15.16,0zm-30.06,41.94l-2.03,8.06l11.37,0l-24.5,69.97l34.85,0l2.28,-7.35l-9.6,0l24.25,-70.68l-36.62,0zm110.87,0.25l-7.59,8.59l-12.62,0l-8.07,-8.34l-27.53,0l-2.53,7.56l9.09,0l-23.5,69.22l29.32,0l2.25,-6.6l-6.82,0l15.41,-48.46l29.06,0l-17.18,55.06l28.28,0l2.53,-6.06l-6.81,0l15.65,-49.25l27.78,0l-17.43,55.31l31.06,0l2.53,-6.6l-7.84,0l19.21,-62.37l-5.81,-7.81l-22.22,0l-7.34,8.06l-13.38,0l-7.59,-8.31l-17.91,0z" fill="#cccccc" id="path3665" stroke="#000000" stroke-miterlimit="10"/>
    </g>
   </g>
  </g>
 </g>
</svg>