<svg width="20" height="20" viewBox="0 0 20 20" fill="none" xmlns="http://www.w3.org/2000/svg">
<g id="Frame" clip-path="url(#clip0_12909_56763)">
<path id="Vector" d="M16.2139 4L11.8806 16C11.8513 16.0638 11.8044 16.1179 11.7453 16.1558C11.6862 16.1938 11.6175 16.2139 11.5472 16.2139C11.477 16.2139 11.4083 16.1938 11.3492 16.1558C11.2901 16.1179 11.2432 16.0638 11.2139 16L9.51367 10.7002L4.21391 9C4.15009 8.97075 4.096 8.92379 4.05808 8.8647C4.02016 8.80561 4 8.73688 4 8.66667C4 8.59646 4.02016 8.52772 4.05808 8.46863C4.096 8.40954 4.15009 8.36258 4.21391 8.33333L16.2139 4Z" stroke="#C72127" stroke-width="1.5" stroke-linecap="round" stroke-linejoin="round"/>
</g>
<defs>
<clipPath id="clip0_12909_56763">
<rect width="20" height="20" fill="white"/>
</clipPath>
</defs>
</svg>
