<svg viewBox="0 0 19 20" fill="none" xmlns="http://www.w3.org/2000/svg">
<path d="M15.0162 10.1332L15.0162 10.1331L15.0149 10.1344L8.10505 17.1763L8.14074 17.2113L8.10505 17.1763C7.48271 17.8106 6.6388 18.1669 5.75901 18.167C4.87923 18.167 4.03525 17.811 3.4128 17.1767C2.79031 16.5425 2.44039 15.682 2.44031 14.7845C2.44023 13.8871 2.78999 13.0265 3.41235 12.3922L13.2387 2.37811C13.4218 2.19155 13.639 2.04361 13.8781 1.94269C14.1172 1.84178 14.3734 1.78985 14.6321 1.78985C14.8908 1.78985 15.1469 1.84178 15.386 1.94269C15.6251 2.04361 15.8423 2.19155 16.0254 2.37811C16.2085 2.56472 16.3538 2.78536 16.4529 3.02918C16.552 3.27306 16.603 3.53449 16.603 3.79852C16.603 4.06255 16.552 4.32397 16.4529 4.56786C16.3537 4.81174 16.2085 5.03327 16.0254 5.21984L16.0611 5.25486L16.0254 5.21984L6.1948 15.241C6.19476 15.241 6.19472 15.2411 6.19468 15.2411C6.07685 15.3595 5.91789 15.4253 5.7528 15.4242C5.58764 15.4231 5.42949 15.3551 5.31318 15.235C5.19685 15.1149 5.13194 14.9524 5.13304 14.7832C5.13413 14.614 5.20113 14.4524 5.31901 14.3339L5.31924 14.3336L12.3342 7.18467L12.3342 7.18468L12.3348 7.18403C12.4665 7.045 12.5391 6.85903 12.5374 6.66621C12.5356 6.4734 12.4597 6.2888 12.3255 6.15224C12.1914 6.01565 12.0098 5.93804 11.8197 5.93645C11.6297 5.93486 11.4468 6.00941 11.3104 6.14375L11.3098 6.14435L4.29487 13.2933L4.29486 13.2933L4.29397 13.2943C3.92338 13.6921 3.71953 14.2211 3.72537 14.7693C3.73122 15.3174 3.94629 15.8418 4.32529 16.2314C4.70431 16.6209 5.2175 16.8449 5.75612 16.8555C6.29311 16.8661 6.81292 16.6638 7.20605 16.2916L7.20653 16.2923L7.21355 16.2852L7.21534 16.2834L7.22163 16.277L7.22164 16.2769L7.22882 16.2696L17.0489 6.26199C17.6899 5.60884 18.0499 4.72314 18.05 3.79976C18.0501 2.87638 17.6902 1.99061 17.0493 1.33734C16.4084 0.684034 15.5389 0.316786 14.6319 0.316699C13.725 0.316612 12.8554 0.683693 12.2143 1.33687L12.2499 1.37179L12.2143 1.33688L2.38934 11.3505C2.38925 11.3506 2.38916 11.3506 2.38908 11.3507C1.93732 11.7994 1.57752 12.335 1.33053 12.9264C1.08348 13.5179 0.954179 14.1535 0.9501 14.7963C0.94602 15.4391 1.06724 16.0764 1.30676 16.6711C1.54627 17.2658 1.89932 17.8062 2.34547 18.2608C2.79162 18.7155 3.32198 19.0754 3.9058 19.3196C4.48963 19.5638 5.11527 19.6874 5.7464 19.6833C6.37753 19.6791 7.00154 19.5472 7.58222 19.2954C8.1628 19.0435 8.68847 18.6768 9.12876 18.2164C9.12883 18.2163 9.1289 18.2162 9.12897 18.2161L16.0384 11.1747L16.0384 11.1748L16.0396 11.1735C16.1673 11.0338 16.2367 10.8492 16.2334 10.6587C16.2301 10.4682 16.1544 10.2862 16.0219 10.1512C15.8894 10.0162 15.7104 9.93867 15.5226 9.93529C15.3349 9.93191 15.1533 10.003 15.0162 10.1332Z" fill="currentColor" stroke="currentColor" stroke-width="0.1"/>
</svg>
