<svg width="24" height="24" viewBox="0 0 24 24" fill="none" xmlns="http://www.w3.org/2000/svg">
<path d="M5.54034 7.88449C5.25459 6.00049 6.58509 4.30399 8.61759 3.68149C8.97847 3.57104 9.36789 3.60243 9.70642 3.76925C10.045 3.93608 10.3071 4.22577 10.4393 4.57924L11.0911 6.31924C11.1959 6.59913 11.2147 6.90395 11.145 7.19459C11.0754 7.48523 10.9206 7.74845 10.7003 7.95049L8.76159 9.72874C8.66598 9.81659 8.59473 9.92768 8.55477 10.0512C8.51482 10.1748 8.50752 10.3065 8.53359 10.4337L8.55084 10.5117L8.59884 10.7075C8.64159 10.8725 8.70609 11.105 8.79684 11.3825C8.97684 11.9337 9.26409 12.6747 9.69159 13.415C10.1191 14.1552 10.6171 14.7747 11.0041 15.206C11.2056 15.4305 11.4163 15.6467 11.6356 15.854L11.6956 15.9095C11.7926 15.9954 11.9101 16.0547 12.0368 16.0816C12.1635 16.1086 12.2951 16.1022 12.4186 16.0632L14.9281 15.2735C15.2132 15.1839 15.5186 15.1815 15.8051 15.2666C16.0916 15.3517 16.3462 15.5205 16.5361 15.7512L17.7233 17.1927C18.2183 17.7927 18.1598 18.6747 17.5906 19.205C16.0351 20.6547 13.8961 20.9525 12.4081 19.7555C10.5842 18.2844 9.0466 16.4903 7.87209 14.4627C6.68788 12.4365 5.89678 10.2042 5.54034 7.88449ZM10.1048 10.532L11.7143 9.05599C12.1548 8.65191 12.4645 8.12548 12.6038 7.54419C12.743 6.96291 12.7054 6.35328 12.4958 5.79349L11.8433 4.05349C11.5771 3.34259 11.0498 2.75996 10.3689 2.42439C9.68804 2.08881 8.90478 2.02555 8.17884 2.24749C5.65509 3.01999 3.62859 5.28274 4.05759 8.10949C4.44234 10.616 5.29653 13.0274 6.57534 15.2172C7.84214 17.4038 9.50051 19.3385 11.4676 20.9247C13.6988 22.7172 16.6793 22.106 18.6136 20.3022C19.167 19.7864 19.5029 19.0789 19.5526 18.3239C19.6024 17.569 19.3623 16.8235 18.8813 16.2395L17.6941 14.798C17.3142 14.3363 16.805 13.9987 16.2318 13.8284C15.6586 13.6582 15.0477 13.6631 14.4773 13.8425L12.3946 14.498C12.3014 14.4021 12.2101 14.3043 12.1208 14.2047C11.6928 13.7312 11.3141 13.2153 10.9906 12.665C10.6757 12.1096 10.4181 11.5236 10.2218 10.916C10.1802 10.7888 10.1412 10.6608 10.1048 10.532Z" fill="currentColor"/>
</svg>
