<svg width="24" height="24" viewBox="0 0 24 24" fill="none" xmlns="http://www.w3.org/2000/svg">
<path d="M17.5547 12.92C16.856 14.336 15.9093 15.7467 14.9413 17.0133C14.0231 18.2075 13.0412 19.3514 12 20.44C10.9588 19.3514 9.97691 18.2075 9.05867 17.0133C8.09067 15.7467 7.144 14.336 6.44533 12.92C5.73867 11.4893 5.33333 10.1493 5.33333 9C5.33333 7.23189 6.03571 5.5362 7.28595 4.28595C8.5362 3.03571 10.2319 2.33333 12 2.33333C13.7681 2.33333 15.4638 3.03571 16.714 4.28595C17.9643 5.5362 18.6667 7.23189 18.6667 9C18.6667 10.1493 18.26 11.4893 17.5547 12.92ZM10.6773 20.9811C11.402 21.7585 12.598 21.7585 13.3227 20.9811C15.5954 18.5432 20 13.268 20 9C20 6.87827 19.1571 4.84344 17.6569 3.34315C16.1566 1.84285 14.1217 1 12 1C9.87827 1 7.84344 1.84285 6.34315 3.34315C4.84285 4.84344 4 6.87827 4 9C4 13.268 8.40459 18.5432 10.6773 20.9811Z" fill="currentColor"/>
<path d="M12 11.6667C11.2928 11.6667 10.6145 11.3857 10.1144 10.8856C9.61428 10.3855 9.33333 9.70724 9.33333 9C9.33333 8.29276 9.61428 7.61448 10.1144 7.11438C10.6145 6.61428 11.2928 6.33333 12 6.33333C12.7072 6.33333 13.3855 6.61428 13.8856 7.11438C14.3857 7.61448 14.6667 8.29276 14.6667 9C14.6667 9.70724 14.3857 10.3855 13.8856 10.8856C13.3855 11.3857 12.7072 11.6667 12 11.6667ZM12 13C13.0609 13 14.0783 12.5786 14.8284 11.8284C15.5786 11.0783 16 10.0609 16 9C16 7.93913 15.5786 6.92172 14.8284 6.17157C14.0783 5.42143 13.0609 5 12 5C10.9391 5 9.92172 5.42143 9.17157 6.17157C8.42143 6.92172 8 7.93913 8 9C8 10.0609 8.42143 11.0783 9.17157 11.8284C9.92172 12.5786 10.9391 13 12 13Z" fill="currentColor"/>
</svg>
