<svg width="20" height="20" viewBox="0 0 20 20" fill="none" xmlns="http://www.w3.org/2000/svg">
<g id="Group 4059">
<path id="Union" fill-rule="evenodd" clip-rule="evenodd" d="M10 1.33333C5.21353 1.33333 1.33333 5.21353 1.33333 10C1.33333 14.7865 5.21353 18.6667 10 18.6667C14.7865 18.6667 18.6667 14.7865 18.6667 10C18.6667 5.21353 14.7865 1.33333 10 1.33333ZM0 10C0 4.47715 4.47715 0 10 0C15.5228 0 20 4.47715 20 10C20 15.5228 15.5228 20 10 20C4.47715 20 0 15.5228 0 10ZM8.88867 6.44436C8.88867 5.83071 9.38613 5.33325 9.99978 5.33325H10.0098C10.6235 5.33325 11.1209 5.83071 11.1209 6.44436C11.1209 7.05801 10.6235 7.55547 10.0098 7.55547H9.99978C9.38613 7.55547 8.88867 7.05801 8.88867 6.44436ZM9.11179 9.33332C8.7436 9.33332 8.44512 9.63179 8.44512 9.99998C8.44512 10.3682 8.7436 10.6667 9.11179 10.6667H9.33401V13.5555C9.33401 13.9237 9.63249 14.2222 10.0007 14.2222H10.8896C11.2578 14.2222 11.5562 13.9237 11.5562 13.5555C11.5562 13.1873 11.2578 12.8889 10.8896 12.8889H10.6673V9.99998C10.6673 9.63179 10.3689 9.33332 10.0007 9.33332H9.11179Z" fill="#020202"/>
</g>
</svg>
