<svg width="64" height="64" viewBox="0 0 64 64" fill="none" xmlns="http://www.w3.org/2000/svg">
<g id="bulk/tick-circle">
<path id="Vector" d="M32.0007 58.6666C46.7282 58.6666 58.6673 46.7276 58.6673 32C58.6673 17.2724 46.7282 5.33331 32.0007 5.33331C17.2731 5.33331 5.33398 17.2724 5.33398 32C5.33398 46.7276 17.2731 58.6666 32.0007 58.6666Z" fill="#359D5F"/>
<path id="Vector_2" d="M28.2138 41.5467C27.6805 41.5467 27.1738 41.3333 26.8005 40.96L19.2538 33.4133C18.4805 32.64 18.4805 31.36 19.2538 30.5867C20.0272 29.8134 21.3072 29.8134 22.0805 30.5867L28.2138 36.72L41.9205 23.0133C42.6938 22.24 43.9738 22.24 44.7472 23.0133C45.5205 23.7867 45.5205 25.0667 44.7472 25.84L29.6272 40.96C29.2538 41.3333 28.7472 41.5467 28.2138 41.5467Z" fill="white"/>
</g>
</svg>
