<svg width="24" height="24" viewBox="0 0 24 24" fill="none" xmlns="http://www.w3.org/2000/svg">
<mask id="path-1-inside-1_12944_18211" fill="white">
<path d="M16.36 14C16.44 13.34 16.5 12.68 16.5 12C16.5 11.32 16.44 10.66 16.36 10H19.74C19.9 10.64 20 11.31 20 12C20 12.69 19.9 13.36 19.74 14M14.59 19.56C15.19 18.45 15.65 17.25 15.97 16H18.92C17.9512 17.6683 16.4141 18.932 14.59 19.56ZM14.34 14H9.66C9.56 13.34 9.5 12.68 9.5 12C9.5 11.32 9.56 10.65 9.66 10H14.34C14.43 10.65 14.5 11.32 14.5 12C14.5 12.68 14.43 13.34 14.34 14ZM12 19.96C11.17 18.76 10.5 17.43 10.09 16H13.91C13.5 17.43 12.83 18.76 12 19.96ZM8 8H5.08C6.03886 6.32721 7.5748 5.06149 9.4 4.44C8.8 5.55 8.35 6.75 8 8ZM5.08 16H8C8.35 17.25 8.8 18.45 9.4 19.56C7.57862 18.9317 6.04485 17.6677 5.08 16ZM4.26 14C4.1 13.36 4 12.69 4 12C4 11.31 4.1 10.64 4.26 10H7.64C7.56 10.66 7.5 11.32 7.5 12C7.5 12.68 7.56 13.34 7.64 14M12 4.03C12.83 5.23 13.5 6.57 13.91 8H10.09C10.5 6.57 11.17 5.23 12 4.03ZM18.92 8H15.97C15.657 6.76146 15.1936 5.5659 14.59 4.44C16.43 5.07 17.96 6.34 18.92 8ZM12 2C6.47 2 2 6.5 2 12C2 14.6522 3.05357 17.1957 4.92893 19.0711C5.85752 19.9997 6.95991 20.7362 8.17317 21.2388C9.38642 21.7413 10.6868 22 12 22C14.6522 22 17.1957 20.9464 19.0711 19.0711C20.9464 17.1957 22 14.6522 22 12C22 10.6868 21.7413 9.38642 21.2388 8.17317C20.7362 6.95991 19.9997 5.85752 19.0711 4.92893C18.1425 4.00035 17.0401 3.26375 15.8268 2.7612C14.6136 2.25866 13.3132 2 12 2Z"/>
</mask>
<path d="M16.36 14C16.44 13.34 16.5 12.68 16.5 12C16.5 11.32 16.44 10.66 16.36 10H19.74C19.9 10.64 20 11.31 20 12C20 12.69 19.9 13.36 19.74 14M14.59 19.56C15.19 18.45 15.65 17.25 15.97 16H18.92C17.9512 17.6683 16.4141 18.932 14.59 19.56ZM14.34 14H9.66C9.56 13.34 9.5 12.68 9.5 12C9.5 11.32 9.56 10.65 9.66 10H14.34C14.43 10.65 14.5 11.32 14.5 12C14.5 12.68 14.43 13.34 14.34 14ZM12 19.96C11.17 18.76 10.5 17.43 10.09 16H13.91C13.5 17.43 12.83 18.76 12 19.96ZM8 8H5.08C6.03886 6.32721 7.5748 5.06149 9.4 4.44C8.8 5.55 8.35 6.75 8 8ZM5.08 16H8C8.35 17.25 8.8 18.45 9.4 19.56C7.57862 18.9317 6.04485 17.6677 5.08 16ZM4.26 14C4.1 13.36 4 12.69 4 12C4 11.31 4.1 10.64 4.26 10H7.64C7.56 10.66 7.5 11.32 7.5 12C7.5 12.68 7.56 13.34 7.64 14M12 4.03C12.83 5.23 13.5 6.57 13.91 8H10.09C10.5 6.57 11.17 5.23 12 4.03ZM18.92 8H15.97C15.657 6.76146 15.1936 5.5659 14.59 4.44C16.43 5.07 17.96 6.34 18.92 8ZM12 2C6.47 2 2 6.5 2 12C2 14.6522 3.05357 17.1957 4.92893 19.0711C5.85752 19.9997 6.95991 20.7362 8.17317 21.2388C9.38642 21.7413 10.6868 22 12 22C14.6522 22 17.1957 20.9464 19.0711 19.0711C20.9464 17.1957 22 14.6522 22 12C22 10.6868 21.7413 9.38642 21.2388 8.17317C20.7362 6.95991 19.9997 5.85752 19.0711 4.92893C18.1425 4.00035 17.0401 3.26375 15.8268 2.7612C14.6136 2.25866 13.3132 2 12 2Z" fill="#606060"/>
<path d="M16.36 10V9.8H16.1343L16.1615 10.0241L16.36 10ZM19.74 10L19.934 9.95149L19.8962 9.8H19.74V10ZM14.59 19.56L14.4141 19.4649L14.1702 19.9161L14.6551 19.7491L14.59 19.56ZM15.97 16V15.8H15.8148L15.7762 15.9504L15.97 16ZM18.92 16L19.093 16.1004L19.2674 15.8H18.92V16ZM14.34 14V14.2H14.5146L14.5382 14.027L14.34 14ZM9.66 14L9.46226 14.03L9.48802 14.2H9.66V14ZM9.66 10V9.8H9.48842L9.46233 9.96959L9.66 10ZM14.34 10L14.5381 9.97257L14.5142 9.8H14.34V10ZM12 19.96L11.8355 20.0738L12 20.3116L12.1645 20.0738L12 19.96ZM10.09 16V15.8H9.8246L9.89775 16.0551L10.09 16ZM13.91 16L14.1023 16.0551L14.1754 15.8H13.91V16ZM8 8V8.2H8.15169L8.19259 8.05393L8 8ZM5.08 8L4.90648 7.90054L4.73483 8.2H5.08V8ZM9.4 4.44L9.57594 4.5351L9.8186 4.08619L9.33553 4.25067L9.4 4.44ZM5.08 16V15.8H4.73323L4.90688 16.1002L5.08 16ZM8 16L8.19259 15.9461L8.15169 15.8H8V16ZM9.4 19.56L9.33478 19.7491L9.82003 19.9165L9.57594 19.4649L9.4 19.56ZM4.26 10V9.8H4.10384L4.06597 9.95149L4.26 10ZM7.64 10L7.83855 10.0241L7.86571 9.8H7.64V10ZM12 4.03L12.1645 3.91623L12 3.67842L11.8355 3.91623L12 4.03ZM13.91 8V8.2H14.1754L14.1023 7.94488L13.91 8ZM10.09 8L9.89775 7.94488L9.8246 8.2H10.09V8ZM18.92 8V8.2H19.2667L19.0931 7.89988L18.92 8ZM15.97 8L15.7761 8.049L15.8143 8.2H15.97V8ZM14.59 4.44L14.6548 4.25078L14.1733 4.08591L14.4137 4.53449L14.59 4.44ZM12 2V1.8V2ZM12 22V22.2V22ZM16.5585 14.0241C16.639 13.3605 16.7 12.6915 16.7 12H16.3C16.3 12.6685 16.241 13.3195 16.1615 13.9759L16.5585 14.0241ZM16.7 12C16.7 11.3085 16.639 10.6395 16.5585 9.97593L16.1615 10.0241C16.241 10.6805 16.3 11.3315 16.3 12H16.7ZM16.36 10.2H19.74V9.8H16.36V10.2ZM19.546 10.0485C19.7028 10.6758 19.8 11.3293 19.8 12H20.2C20.2 11.2907 20.0972 10.6042 19.934 9.95149L19.546 10.0485ZM19.8 12C19.8 12.6707 19.7028 13.3242 19.546 13.9515L19.934 14.0485C20.0972 13.3958 20.2 12.7093 20.2 12H19.8ZM14.7659 19.6551C15.3742 18.5297 15.84 17.3143 16.1638 16.0496L15.7762 15.9504C15.46 17.1857 15.0058 18.3703 14.4141 19.4649L14.7659 19.6551ZM15.97 16.2H18.92V15.8H15.97V16.2ZM18.747 15.8996C17.8023 17.5263 16.3036 18.7585 14.5249 19.3709L14.6551 19.7491C16.5247 19.1055 18.1 17.8103 19.093 16.1004L18.747 15.8996ZM14.34 13.8H9.66V14.2H14.34V13.8ZM9.85774 13.97C9.75894 13.3179 9.7 12.6681 9.7 12H9.3C9.3 12.6919 9.36106 13.3621 9.46226 14.03L9.85774 13.97ZM9.7 12C9.7 11.3317 9.75897 10.672 9.85767 10.0304L9.46233 9.96959C9.36103 10.628 9.3 11.3083 9.3 12H9.7ZM9.66 10.2H14.34V9.8H9.66V10.2ZM14.1419 10.0274C14.2313 10.6734 14.3 11.3332 14.3 12H14.7C14.7 11.3068 14.6287 10.6266 14.5381 9.97257L14.1419 10.0274ZM14.3 12C14.3 12.6667 14.2314 13.3164 14.1418 13.973L14.5382 14.027C14.6286 13.3636 14.7 12.6933 14.7 12H14.3ZM12.1645 19.8462C11.345 18.6615 10.6854 17.351 10.2823 15.9449L9.89775 16.0551C10.3146 17.509 10.995 18.8585 11.8355 20.0738L12.1645 19.8462ZM10.09 16.2H13.91V15.8H10.09V16.2ZM13.7177 15.9449C13.3146 17.351 12.655 18.6615 11.8355 19.8462L12.1645 20.0738C13.005 18.8585 13.6854 17.509 14.1023 16.0551L13.7177 15.9449ZM8 7.8H5.08V8.2H8V7.8ZM5.25352 8.09946C6.18817 6.4689 7.68533 5.23512 9.46447 4.62933L9.33553 4.25067C7.46426 4.88785 5.88954 6.18553 4.90648 7.90054L5.25352 8.09946ZM9.22406 4.3449C8.61537 5.47097 8.16037 6.6855 7.80741 7.94607L8.19259 8.05393C8.53963 6.8145 8.98463 5.62903 9.57594 4.5351L9.22406 4.3449ZM5.08 16.2H8V15.8H5.08V16.2ZM7.80741 16.0539C8.16037 17.3145 8.61537 18.529 9.22406 19.6551L9.57594 19.4649C8.98463 18.371 8.53963 17.1855 8.19259 15.9461L7.80741 16.0539ZM9.46522 19.3709C7.68934 18.7583 6.19386 17.5259 5.25312 15.8998L4.90688 16.1002C5.89583 17.8095 7.46791 19.105 9.33478 19.7491L9.46522 19.3709ZM4.45403 13.9515C4.29721 13.3242 4.2 12.6707 4.2 12H3.8C3.8 12.7093 3.90279 13.3958 4.06597 14.0485L4.45403 13.9515ZM4.2 12C4.2 11.3293 4.29721 10.6758 4.45403 10.0485L4.06597 9.95149C3.90279 10.6042 3.8 11.2907 3.8 12H4.2ZM4.26 10.2H7.64V9.8H4.26V10.2ZM7.44145 9.97593C7.36102 10.6395 7.3 11.3085 7.3 12H7.7C7.7 11.3315 7.75898 10.6805 7.83855 10.0241L7.44145 9.97593ZM7.3 12C7.3 12.6915 7.36102 13.3605 7.44145 14.0241L7.83855 13.9759C7.75898 13.3195 7.7 12.6685 7.7 12H7.3ZM11.8355 4.14377C12.6547 5.32818 13.3145 6.6486 13.7177 8.05512L14.1023 7.94488C13.6855 6.4914 13.0053 5.13182 12.1645 3.91623L11.8355 4.14377ZM13.91 7.8H10.09V8.2H13.91V7.8ZM10.2823 8.05512C10.6855 6.6486 11.3453 5.32818 12.1645 4.14377L11.8355 3.91623C10.9947 5.13182 10.3145 6.4914 9.89775 7.94488L10.2823 8.05512ZM18.92 7.8H15.97V8.2H18.92V7.8ZM16.1639 7.951C15.8469 6.69663 15.3776 5.48579 14.7663 4.34551L14.4137 4.53449C15.0096 5.646 15.4671 6.82629 15.7761 8.049L16.1639 7.951ZM14.5252 4.62922C16.3192 5.24347 17.8109 6.48164 18.7469 8.10012L19.0931 7.89988C18.1091 6.19836 16.5408 4.89653 14.6548 4.25078L14.5252 4.62922ZM12 1.8C6.35915 1.8 1.8 6.38993 1.8 12H2.2C2.2 6.61007 6.58085 2.2 12 2.2V1.8ZM1.8 12C1.8 14.7052 2.87464 17.2996 4.78751 19.2125L5.07035 18.9296C3.2325 17.0918 2.2 14.5991 2.2 12H1.8ZM4.78751 19.2125C5.73467 20.1596 6.85911 20.911 8.09663 21.4236L8.2497 21.054C7.06071 20.5615 5.98037 19.8397 5.07035 18.9296L4.78751 19.2125ZM8.09663 21.4236C9.33415 21.9362 10.6605 22.2 12 22.2V21.8C10.713 21.8 9.43869 21.5465 8.2497 21.054L8.09663 21.4236ZM12 22.2C14.7052 22.2 17.2996 21.1254 19.2125 19.2125L18.9296 18.9296C17.0918 20.7675 14.5991 21.8 12 21.8V22.2ZM19.2125 19.2125C21.1254 17.2996 22.2 14.7052 22.2 12H21.8C21.8 14.5991 20.7675 17.0918 18.9296 18.9296L19.2125 19.2125ZM22.2 12C22.2 10.6605 21.9362 9.33415 21.4236 8.09663L21.054 8.2497C21.5465 9.43869 21.8 10.713 21.8 12H22.2ZM21.4236 8.09663C20.911 6.85911 20.1596 5.73467 19.2125 4.78751L18.9296 5.07035C19.8397 5.98037 20.5615 7.06071 21.054 8.2497L21.4236 8.09663ZM19.2125 4.78751C18.2653 3.84035 17.1409 3.08903 15.9034 2.57643L15.7503 2.94598C16.9393 3.43848 18.0196 4.16034 18.9296 5.07035L19.2125 4.78751ZM15.9034 2.57643C14.6659 2.06383 13.3395 1.8 12 1.8V2.2C13.287 2.2 14.5613 2.45348 15.7503 2.94598L15.9034 2.57643Z" fill="white" mask="url(#path-1-inside-1_12944_18211)"/>
</svg>
