<svg viewBox="0 0 32 32" fill="none" xmlns="http://www.w3.org/2000/svg">
<path d="M6.13569 24.8031C5.84279 25.096 5.84279 25.5709 6.13569 25.8637C6.42858 26.1566 6.90345 26.1566 7.19635 25.8637L6.13569 24.8031ZM25.863 7.19708C26.1559 6.90418 26.1559 6.42931 25.863 6.13642C25.5701 5.84352 25.0952 5.84352 24.8024 6.13642L25.863 7.19708ZM7.19635 6.13642C6.90345 5.84352 6.42858 5.84352 6.13569 6.13642C5.84279 6.42931 5.84279 6.90418 6.13569 7.19708L7.19635 6.13642ZM24.8024 25.8637C25.0952 26.1566 25.5701 26.1566 25.863 25.8637C26.1559 25.5709 26.1559 25.096 25.863 24.8031L24.8024 25.8637ZM7.19635 25.8637L16.5297 16.5304L15.469 15.4698L6.13569 24.8031L7.19635 25.8637ZM16.5297 16.5304L25.863 7.19708L24.8024 6.13642L15.469 15.4698L16.5297 16.5304ZM16.5297 15.4698L7.19635 6.13642L6.13569 7.19708L15.469 16.5304L16.5297 15.4698ZM6.13569 7.19708L24.8024 25.8637L25.863 24.8031L7.19635 6.13642L6.13569 7.19708Z" fill='currentColor' stroke="currentColor"/>
</svg>
